<?xml version="1.0" encoding="utf-8"?>
<!-- Generator: Adobe Illustrator 16.0.0, SVG Export Plug-In . SVG Version: 6.00 Build 0)  -->
<!DOCTYPE svg PUBLIC "-//W3C//DTD SVG 1.1//EN" "http://www.w3.org/Graphics/SVG/1.1/DTD/svg11.dtd">
<svg version="1.1" id="Layer_1" xmlns="http://www.w3.org/2000/svg" xmlns:xlink="http://www.w3.org/1999/xlink" x="0px" y="0px"
	 width="686px" height="333px" viewBox="0 0 686 333" enable-background="new 0 0 686 333" xml:space="preserve">
<g>
	<path fill-rule="evenodd" clip-rule="evenodd" fill="#9A9E9D" d="M672.706,287.627c-1.98-2.492-4.599-4.184-7.52-5.322
		c-2.199-0.862-3.831-2.199-5.398-4c-3.569-4.136-8.291-6.843-13.04-9.428c-0.709-0.386-1.77-0.553-2.064-1.137
		c-0.968-1.984-2.859-1.617-4.43-1.923c-2.383-0.478-4.829-0.707-7.259-0.971c-1.263-0.139-2.802-0.601-3.753-0.075
		c-1.599,0.89-2.413-0.848-3.814-0.54c-2.782,0.601-5.555,0.186-8.29-0.629c-0.691-0.215-1.892,0.091-2.383,0.614
		c-0.402,0.415-0.784,0.784-1.183,1.044l0.5,0.697c2.76,0.196,2.081,1.275,3.789,2.581c-1.723,1.4-3.412,2.721-5.844,2.246
		c-0.278-0.062-0.664-0.078-0.877,0.061c-0.569,0.356-1.337,0.738-1.479,1.262c-0.107,0.43,0.445,1.215,0.92,1.583
		c0.742,0.571,1.666,0.924,2.648,1.446c-5.599,3.415-10.244,9.922-9.626,13.61c1.354,0.08,2.783,0.156,4.411,0.233
		c-0.801,1.26-1.537,2.413-2.334,3.659c2.674,1.463,4.257-1.784,6.859-0.722c-0.831,1.382-1.617,2.628-2.307,3.907
		c-1.015,1.846-0.711,2.767,1.29,3.414c0.895,0.276,1.95,0.353,2.892,0.215c1.939-0.277,3.846-0.77,5.969-1.216
		c-0.388,1.83-2.249,3.03-1.219,5.029c0.371-0.03,0.848,0.063,1.111-0.121c3.321-2.509,7.332-3.493,11.071-5.092
		c3.829-1.679,7.753-3.168,11.629-4.738c1.276-0.521,2.505-1.186,3.811-1.597c2.465-0.803,5-1.372,7.446-2.232
		c2.152-0.77,4.2-1.813,6.294-2.752c1.257-0.585,2.43-0.571,3.72,0.091c2.216,1.124,4.489,2.154,6.826,3.045
		c0.668,0.263,1.588-0.108,2.387-0.186C673.216,288.98,673.136,288.165,672.706,287.627z M637.271,268.815
		c-8.26,1.4-8.597,1.37-10.936-1.444C629.98,267.848,633.626,268.339,637.271,268.815z M638.225,273.906
		c-3.829,1.309-7.66-0.831-11.408,0.601c0-0.231,0.013-0.445,0.027-0.66c2.628-0.508,5.228-1.186,7.876-1.415
		C635.856,272.337,637.086,273.168,638.225,273.906z M639.978,277.059c0.015,0.276,0.048,0.557,0.078,0.83
		c-2.522,0.464-5.03,0.924-7.552,1.386c-0.784,0.138-1.586,0.152-2.352,0.353c-3.523,0.877-6.83,2.816-10.692,1.892
		c-0.722-0.167-1.599,0.31-2.599,0.017c1.555-1.063,3.09-2.185,4.69-3.183c0.677-0.402,1.508-0.77,2.261-0.755
		C629.212,277.721,634.564,276.553,639.978,277.059z M640.07,284.949c-6.215,1.201-12.119,2.339-18.013,3.445
		c-0.167,0.031-0.413-0.291-0.658-0.491c4.043-2.124,4.123-2.183,4.92-3.924c0.695,0,1.539,0.172,2.245-0.062
		c0.403-0.15,0.447-1.198,0.878-1.446c3.553-2.044,5.288-1.873,8.584,0.739C638.716,283.749,639.363,284.35,640.07,284.949z
		 M624.366,271.169h-5.399C621.197,269.092,622.781,270.169,624.366,271.169z M619.706,276.537
		c-1.368,0.445-2.752,0.893-4.137,1.337C616.201,275.629,616.383,275.553,619.706,276.537z M618.551,290.965
		c-0.677,2.075-2.121,2.153-3.964,2.153C615.369,291.054,616.645,290.672,618.551,290.965z M617.507,296.5
		c3.521-3.351,6.632-6.581,11.212-7.582C623.244,295.47,623.244,295.47,617.507,296.5z M641.133,288.718
		c-0.508,0.584-1.093,1.123-1.689,1.63c-1.155,1.016-1.081-0.844-1.586-0.753c-2.309,0.446-4.601,1.001-6.876,1.601
		c-0.616,0.168-1.124,0.659-1.801,0.737c3.245-3.584,8.336-2.338,11.874-5.17c0.184,0.293,0.353,0.603,0.537,0.911
		C641.453,288.025,641.377,288.441,641.133,288.718z M612.803,265.585L612.803,265.585c-0.48,0.124-2.714,0.076-3.372,0.262
		c-0.886,0.255,0.586-0.138,0,0c-7.856,1.815-15.456,0.4-22.976-1.723c-0.016-0.216-0.016-0.414-0.032-0.631
		c3.753-0.814,7.552-1.506,11.259-2.474c8.382-2.153,16.336-5.231,23.085-10.936c5.047-4.245,10.339-8.215,15.322-12.536
		c5.149-4.445,10.227-8.644,17.747-7.429c2.03,0.339,4.166-0.06,6.243-0.169c1.2-0.078,1.862-0.802,1.755-1.984
		c-0.245-2.692-0.462-5.368-3.014-7.167c-1.539-1.107-2.923-2.444-4.213-3.814c-0.511-0.54-0.955-1.631-0.771-2.246
		c1.568-4.951,2.939-10.029,5.073-14.733c2.494-5.569,2.83-11.429,3.386-17.272c0.768-8.044-1.723-15.904-1.861-23.901
		c0-0.107,0-0.229-0.063-0.292c-0.458-0.616-0.81-1.431-1.428-1.708c-0.339-0.152-1.248,0.508-1.63,1.001
		c-1.295,1.659-2.401,3.46-3.707,5.105c-2.03,2.567-3.998,5.244-6.938,6.892c-2.368,1.306-4.736,2.645-7.225,3.688
		c-3.127,1.31-6.324,2.508-9.586,3.416c-2.967,0.831-6.073,1.153-9.107,1.815c-5.335,1.182-10.44,2.939-14.499,6.767
		c-1.388,1.308-2.528,1.107-4.015,0.291c-3.878-2.106-7.781-4.135-11.754-6.028c-3.505-1.659-7.179-3.014-10.702-4.642
		c-6.616-3.078-13.181-6.232-19.765-9.384c-1.075-0.507-2.075-1.214-3.169-1.708c-6.37-2.892-12.703-5.843-19.146-8.566
		c-3.293-1.4-6.771-2.43-10.185-3.569c-3.509-1.167-7.104-2.108-10.566-3.445c-6.615-2.539-13.151-5.292-19.731-7.968
		c-1.11-0.445-2.245-0.799-3.309-1.337c-2.753-1.384-5.368-3.138-8.228-4.199c-6.661-2.445-13.396-4.735-20.192-6.72
		c-3.387-1.001-6.32-2.615-8.874-4.813c-5.539-4.738-10.939-9.646-16.245-14.629c-5.597-5.26-11.045-10.673-16.516-16.056
		c-1.063-1.046-1.863-2.339-2.849-3.462c-2.075-2.353-4.015-4.875-6.351-6.952c-5.335-4.768-10.892-9.29-16.35-13.918
		c-0.155-0.138-0.261-0.309-0.398-0.448c-2.418-2.198-4.757-4.457-7.245-6.553c-1.2-1.015-2.752-1.598-4.015-2.551
		c-2.522-1.939-4.691-4.493-7.459-5.905c-4.693-2.4-8.799-5.691-13.474-8.076c-2.139-1.09-4.229-2.26-6.384-3.307
		c-2.783-1.337-5.83-2.261-8.352-3.968c-5.091-3.462-10.873-5.383-16.364-7.936c-4.167-1.922-8.675-3.092-12.951-4.783
		c-3.92-1.539-7.905-2.783-12.058-3.445c-3.891-0.632-7.827-1.031-11.75-1.601c-1.458-0.214-2.923-0.568-4.367-0.937
		c-1.813-0.446-3.6-1.247-5.43-1.431c-3.662-0.354-7.352-0.478-11.044-0.571c-12.24-0.29-24.084,2.002-35.635,5.908
		c-1.326,0.463-2.632,0.97-3.893,1.568c-5.673,2.707-11.367,5.353-16.489,9.076c-2.488,1.813-5.35,3.137-7.901,4.89
		c-5.048,3.445-9.244,7.89-13.551,12.181c-2.556,2.554-5.262,4.999-7.459,7.813c-3.323,4.229-6.43,8.645-9.338,13.165
		c-3.043,4.722-6.474,9.229-8.547,14.535c-0.662,1.661-1.663,3.199-2.263,4.875c-1.446,4.03-2.938,8.06-4.016,12.198
		c-1.308,4.999-3.274,9.813-3.875,15.012c-0.598,5.245-1.708,10.443-2.261,15.703c-0.646,6.229-1.155,12.503-1.352,18.764
		c-0.326,9.197-0.063,18.395,2.352,27.377c0.724,2.706,1.29,5.46,2.248,8.074c1.472,4.015,3.241,7.936,4.856,11.905
		c0.739,1.844,1.384,3.735,2.123,5.582c0.889,2.216,0.276,3.247-2.014,3.262h-5.863c-0.26-0.725-0.753-1.799-1.059-2.938
		c-0.922-3.445-2.462-6.538-4.754-9.292c-0.955-1.137-1.708-2.461-2.534-3.705c-3.403-5.06-6.958-10.059-11.462-14.194
		c-2.552-2.354-5.491-4.293-8.305-6.323c-3.091-2.229-6.089-4.598-9.379-6.46c-4.431-2.522-9.03-4.784-13.691-6.86
		c-6.153-2.753-12.63-4.322-19.379-5.015c-5.261-0.537-10.658,0.311-15.795-1.458c-0.216-0.077-0.537,0.168-1.23,0.398
		c0.445,0.846,0.785,1.601,1.23,2.277c1.923,2.922,4.062,5.72,5.766,8.75c3.018,5.371,3.432,11.46,4.262,17.379
		c0.955,6.831,1.46,13.703,2.246,20.55c1.015,8.858,4.491,16.931,8.445,24.777c1.258,2.492,2.044,4.904,2.246,7.768
		c-7.448,1.306-13.091,5.721-18.658,10.35c-3.062,2.554-6.092,5.293-9.538,7.246c-5.32,3.045-8.35,7.903-11.117,12.933
		c-1.156,2.092-2.293,4.002-4.155,5.368c-6.106,4.462-12.273,8.814-18.441,13.196c-0.645,0.462-1.383,0.815-2.119,1.106
		c-2.141,0.849-4.341,1.538-6.448,2.448c-4.028,1.753-8.028,3.6-12.027,5.443c-1.539,0.723-1.77,1.661-0.63,2.771
		c5.124,5.027,10.935,9.288,17.657,11.642c8.291,2.906,16.873,4.998,25.409,7.166c4.646,1.168,9.396,2.06,14.166,2.476
		c5.076,0.448,10.212,0.155,15.318,0.249c4.398,0.092,8.812,0.506,13.197,0.354c5.783-0.217,11.733-0.124,17.303-1.463
		c7.103-1.738,14.179-3.921,19.963-9.149c4.336-3.923,10.104-6.122,13.962-10.801c0.371-0.458,1.417-0.473,2.172-0.507
		c1.768-0.075,3.582,0.188,5.308-0.09c2.261-0.354,4.442-1.154,6.672-1.662c0.864-0.186,1.941-0.415,2.661-0.076
		c3.292,1.506,6.63,1.076,9.413,0.599c2.892,2.015,5.262,4.047,7.938,5.506c8.966,4.861,17.918,9.738,27.883,12.49
		c11.583,3.214,23.257,4.875,35.267,3.462c2.769-0.322,5.537-0.634,8.306-0.986c4.262-0.538,8.582-0.829,12.782-1.753
		c7.874-1.721,15.028-5.537,22.118-9.183c6.135-3.154,12.336-5.968,18.9-8.028c0.479-0.153,1.017-0.324,1.337-0.66
		c0.355-0.384,0.651-0.955,0.679-1.446c0-0.217-0.74-0.646-1.151-0.662c-4.999-0.124-9.83-1.478-14.444-3.001
		c-4.385-1.429-8.553-3.842-12.381-6.458c-4.922-3.354-9.568-7.166-14.057-11.073c-3.69-3.201-7.183-6.645-10.43-10.292
		c-3.583-4.013-6.75-8.382-11.227-11.55c-3.307-2.354-6.352-5.075-9.609-7.49c-2.463-1.826-4.924-3.875-7.708-5.073
		c-5.213-2.246-10.734-3.738-16.333-4.848c-3.247-0.644-6.368-0.768-9.384,0.74c-1.584,0.784-2.521,0.262-3.569-1.015
		c-2.688-3.291-4.811-7.092-8.518-9.475c-0.049-0.029-0.016-0.186-0.065-0.63c0.818-0.124,1.646-0.295,2.481-0.386
		c1.983-0.243,4.151-0.044,5.919-0.8c3.816-1.587,7.798-1.244,11.412-0.493c5.431,1.124,10.828,2.984,15.843,5.384
		c4.46,2.14,8.615,5.122,12.427,8.308c7.199,6.013,14.055,12.441,21.056,18.684c3.829,3.431,7.811,6.739,11.888,9.768
		c5.785,4.322,12.349,7.584,18.577,11.292c0.173,0.09,0.371,0.168,0.557,0.229c3.707,1.215,7.397,2.476,11.121,3.646
		c1.032,0.323,2.134,0.491,3.229,0.585c3.981,0.339,7.967,0.754,11.95,0.873c3.369,0.109,6.799,0.219,10.103-0.276
		c4.34-0.658,8.538-2.12,12.875-2.845c8.69-1.43,16.861-4.384,24.61-8.412c6.12-3.169,12.227-6.216,18.609-8.875
		c10.168-4.243,20.103-8.858,30.979-11.059c1.459-0.31,2.934-0.691,4.302-1.292c6.723-2.997,13.998-2.904,21.458-4.353
		c0.369,2.031,0.77,3.754,0.97,5.491c0.414,3.783,0.662,7.567,1.107,11.351c0.124,1.062,0.433,2.244,1.029,3.092
		c1.906,2.692,3.724,5.537,6.092,7.781c5.135,4.894,10.519,9.552,15.998,14.09c3.225,2.676,6.765,4.968,10.948,6.073
		c1.922,0.495,3.813,1.187,5.688,1.894c6.141,2.292,12.521,3.553,18.949,4.493c5.139,0.751,10.338,0.996,15.503,1.584
		c9.43,1.075,18.797,0.628,28.01-1.539c5.352-1.247,10.676-2.522,15.656-5.093c5.415-2.783,11.044-5.135,16.61-7.612
		c3.568-1.582,7.367-2.706,10.737-4.612c6.166-3.493,7.554-6.365,13.955-9.548C608.219,269.819,612.419,265.709,612.803,265.585z
		 M624.352,243.654c-2.294,1.922-4.565,3.861-6.905,5.734c-1.091,0.862-2.215,1.771-3.476,2.323
		c-5.308,2.355-10.596,4.753-16.028,6.783c-2.476,0.924-5.275,0.924-7.893,1.477c-2.919,0.601-5.795,1.386-8.688,2.032
		c-0.631,0.136-1.367,0.198-1.968,0.013c-5.215-1.554-9.877-4.244-14.504-6.996c-0.43-0.262-0.815-0.601-1.168-0.953
		c-0.2-0.2-0.31-0.495-0.537-0.877c0.411-0.309,0.77-0.647,1.183-0.848c0.724-0.321,1.477-0.614,2.246-0.844
		c3.384-1,6.49-3.676,10.35-1.662c6.381-0.109,12.797,0.477,19.152-0.846c1.934-0.4,3.979-0.231,5.98-0.417
		c0.734-0.076,1.446-0.415,2.17-0.647c-0.063-0.337-0.124-0.675-0.186-0.997c-1.739-0.062-3.521-0.386-5.217-0.138
		c-6.071,0.924-12.18,0.553-18.272,0.477c-0.442,0-0.89-0.215-1.948-0.495c2.459-1.474,4.382-2.674,6.352-3.813
		c3.458-1.999,6.892-4.06,10.424-5.904c1.081-0.569,2.45-0.679,3.692-0.77c1.783-0.156,3.584-0.14,5.383-0.156
		c2.984-0.013,5.97,0.126,8.938-0.027c2.185-0.124,4.6-0.034,6.027-2.479c-5.997,0.233-11.812,0.448-17.671,0.679
		c0.075-0.462,0.044-0.662,0.139-0.8c1.398-2.323,3.354-2.754,6.027-2.431c8.167,0.984,16.351,0.26,24.534-0.186
		c2.257-0.138,4.504-1.196,7.028,0.139C634.41,235.271,629.383,239.469,624.352,243.654z M572.368,246.501
		c-3.614,1.411-7.229,2.845-10.892,4.104c-0.799,0.28-2.076,0.186-2.707-0.276c-2.294-1.721-4.445-3.627-6.552-5.552
		c-0.491-0.462-0.986-1.4-0.862-1.984c0.491-2.523,0.662-5.185,2.602-7.212c0.521-0.554,0.749-1.387,1.229-2.277
		c6.919-0.4,13.688-0.799,20.978-1.229c-0.095,1.262-0.139,2.368-0.244,3.474c-0.216,2.061-0.694,4.107-0.649,6.155
		C575.35,244.5,574.981,245.468,572.368,246.501z M577.765,237.472c0.154-0.586,0.553-1.139,0.553-1.706
		c0-3.216,1.906-4.188,4.735-4.417c3.663-0.291,7.307-0.691,11.261,0.093c-0.291,1.615-0.508,2.785-0.706,3.905
		c-5.044,2.893-10.027,5.754-15.215,8.722C577.427,241.917,577.212,239.73,577.765,237.472z M596.713,233.04
		c0.724-2.215,1.753-2.259,3.187-1.353C599.021,232.057,598.13,232.442,596.713,233.04z M617.368,182.825
		c5.293-1.016,10.6-2.138,15.765-3.647c6.645-1.937,12.89-4.889,18.119-9.549c1.63-1.447,2.875-3.323,4.307-5
		c0.434-0.507,0.86-1.015,1.692-2c0.321,1.707,0.631,2.924,0.785,4.153c0.337,2.969,0.737,5.936,0.89,8.919
		c0.508,9.06-0.184,17.92-4.198,26.287c-1.217,2.505-1.766,5.304-2.721,7.935c-0.524,1.462-1.263,2.847-1.984,4.399
		c-5.185-3.292-10.045-6.366-15.104-9.582c4.847-4.338,8.29-9.32,11.812-14.766c-2.4-0.107-3.09,1.4-4.06,2.583
		c-2.507,3.096-5.09,6.122-7.645,9.152c-1.201,1.432-2.416,1.663-4.168,0.601c-6.229-3.798-12.583-7.367-18.856-11.089
		c-1.444-0.861-2.739-1.968-4.631-3.354C610.955,185.822,613.646,183.515,617.368,182.825z M98.729,219.46
		c-2.061-4.354-4.169-8.688-4.892-13.471c-0.968-6.43-1.723-12.875-2.354-19.335c-0.32-3.276-0.383-6.538-1.458-9.721
		c-0.785-2.354-1.171-4.844-1.602-7.305c-0.585-3.522-2.123-6.584-4.198-9.445c-0.507-0.692-0.769-1.568-1.245-2.583
		c4.319-1.092,8.366-0.585,12.366-0.016c7.197,1.017,14.042,3.214,20.516,6.521c8.489,4.322,16.721,9.151,24.025,15.242
		c4.107,3.414,7.443,7.798,10.859,11.966c2.274,2.782,4.229,5.858,6.061,8.952c1.368,2.307,2.364,4.828,3.443,7.305
		c0.246,0.584,0.124,1.339,0.171,2.216c-3.983,0.491-7.923-1.892-11.719,0.537c-3.261,2.061-6.754,3.754-10.368,5.722
		c-0.938-2.275,1.309-4.091,1.753-6.244c0.478-2.23,1.708-4.291,2.324-6.583c-2.662,1.876-3.57,4.892-4.953,8.137
		c-0.893-1.539-1.601-2.678-2.215-3.831c-1.093-2.03-2.229-4.029-3.186-6.119c-0.367-0.848-0.523-1.877-0.461-2.815
		c0.342-5.078,1.496-10.135,0.155-15.229c-0.104-0.353-0.216-0.72-0.445-1.582c-1.477,2.797,0.093,5.259-0.432,7.612
		c-0.524,2.428-0.691,4.937-1.536,7.674c-0.724-0.999-1.494-1.953-2.123-2.998c-1.322-2.259-1.893-4.983-4.229-6.599
		c-0.233-0.152-0.399-0.477-0.478-0.753c-1.076-3.507-2.106-7.014-3.184-10.521c-0.738-2.368-1.539-4.737-2.324-7.105
		c-0.123-0.386-0.307-0.738-0.46-1.092c-0.383,0.198-0.77,0.399-1.136,0.601c0.83,4.535,2.32,8.902,3.567,13.563
		c-0.679-0.736-1.477-1.397-2.016-2.244c-2.14-3.322-4.889-6.028-7.967-8.489c-1.709-1.37-3.124-3.093-4.768-4.568
		c-1.049-0.937-2.244-1.738-3.844-0.077c5.905,5.923,12.843,10.813,17.179,18.654c-1.308-0.336-2.213-0.567-3.139-0.798
		c-0.107,0.123-0.214,0.262-0.309,0.386c1.201,0.844,2.326,1.875,3.647,2.506c2.83,1.387,4.845,3.384,6.09,6.323
		c0.758,1.768,1.966,3.338,2.724,5.289c-5.106-1.554-9.627-4.414-14.627-5.904c-0.138,0.244-0.277,0.506-0.417,0.753
		c0.325,0.415,0.572,0.968,0.987,1.197c1.385,0.802,2.814,1.539,4.274,2.187c3.645,1.599,7.335,3.106,10.997,4.707
		c1.798,0.782,2.908,2.073,3.83,3.922c1.629,3.26,2.691,6.581,3.277,10.702c-5.276-2.259-10.184-4.367-15.705-6.752
		c1.539,2.678,3.446,3.8,5.507,4.723c1.74,0.785,3.552,1.382,5.259,2.2c1.14,0.539,2.168,1.324,3.879,2.383
		c-10.723,3.215-16.136,11.013-20.674,19.965c-2.167-1.477-4.397-2.784-4.934-5.675c-0.111-0.523-0.618-1-1.017-1.432
		C103.71,228.337,100.929,224.135,98.729,219.46z M144.853,299.944c-1.736,1.153-3.445,2.37-4.999,3.74
		c-4.767,4.213-10.381,6.472-16.458,8.134c-7.583,2.078-15.258,1.834-22.944,1.878c-4.616,0.016-9.232,0.091-13.831-0.093
		c-5.687-0.248-11.35-0.784-17.041-1.108c-6.967-0.384-13.395-3.106-20.087-4.675c-3.199-0.738-6.352-1.753-9.564-2.491
		c-3.631-0.845-6.922-2.23-9.906-4.584c-2.724-2.138-5.813-3.783-9.397-6.075c3.168-1.706,5.645-3.074,8.181-4.337
		c1.878-0.938,3.906-1.567,5.738-2.582c4.63-2.54,9.196-5.201,13.765-7.876c4.968-2.893,9.077-6.876,13.104-10.903
		c1.678-1.677,3.046-3.725,4.23-5.801c2.217-3.845,5.506-6.566,8.92-9.213c4.569-3.537,9.06-7.199,13.689-10.645
		c3.554-2.645,7.382-4.905,11.891-5.428c3.459-0.399,6.658,0.586,9.46,2.722c0.228,0.186,0.429,0.509,0.688,0.553
		c3.324,0.695,4.291,3.896,6.229,5.999c0.678,0.738,0.74,2.524,0.432,3.646c-1.432,5.168,0.8,9.628,2.491,14.212
		c0.076,0.186,0.125,0.369,0.306,0.937c-2.488-0.536-5.167,1.693-7.149-1.475c-0.537,0.477-0.952,0.829-1.692,1.475
		c-2.644-3.844-7.165-4.705-10.966-6.752c-2.923-1.552-6.413-2.046-9.659-2.919c-0.307-0.095-0.767,0.382-1.521,0.782
		c4.164,1.538,8.009,2.768,11.69,4.369c3.595,1.553,7.441,2.845,10.255,6.704c-2.307,0.538-4.184,1.153-6.104,1.383
		c-2.783,0.342-5.138,1.538-7.352,3.153c-0.892,0.647-1.875,1.172-2.752,1.832c-1.693,1.277-3.168,1.908-5.398,0.63
		c-2.386-1.352-5.23-1.876-7.8-2.952c-3.043-1.263-6.075-0.172-9.119-0.153c-0.169,0-0.324,0.444-0.601,0.829
		c1.2,1.383,2.336,2.568,4.492,2.154c0.92-0.186,1.953,0.262,2.938,0.398c0.983,0.14,2.105,0.584,2.938,0.278
		c2.919-1.077,4.891,0.8,7.472,1.828c-1.661,2.231-3.982,2.984-6.014,4.138c-2.938,1.662-5.965,3.216-8.966,4.784
		c-2.597,1.369-5.122,1.262-7.674-0.291c-2.309-1.401-4.708-2.631-7.092-3.907c-1.199-0.63-2.398-0.892-3.551,0.694
		c3.8,1.75,7.413,3.441,11.027,5.135c-0.031,0.229-0.06,0.461-0.093,0.693c-3.014,0.829-6.061,1.554-9.028,2.521
		c-2.814,0.923-6.061,0.755-8.428,2.816c0.048,0.291,0.09,0.599,0.121,0.891c1.109,0.029,2.232,0.215,3.292,0.046
		c1.771-0.293,3.475-1.137,5.231-1.185c3.368-0.047,6.551-0.538,9.594-1.984c0.079-0.03,0.296,0.188,0.708,0.479
		c-2.518,1.739-4.982,3.521-4.95,6.936c0.014,0.675,0.2,1.354,0.308,2.047c0.247,0.015,0.492,0.029,0.737,0.062
		c0.279-0.555,0.708-1.093,0.8-1.662c0.385-2.277,1.215-4.122,3.432-5.275c0.719-0.367,0.98-1.601,1.474-2.414
		c0.37-0.631,0.63-1.616,1.169-1.816c6.369-2.274,11.968-5.967,17.782-9.259c0.058-0.045,0.183,0,0.429,0
		c0.415,3.445,0.892,6.938,1.231,10.428c0.076,0.799-0.262,1.756,0.908,1.769c1.305,0.017,1.229-1.016,1.152-1.952
		c-0.324-3.354-0.583-6.721-0.953-10.059c-0.171-1.601,0.37-2.678,1.677-3.568c2.136-1.461,4.107-3.186,6.32-4.477
		c1.352-0.784,3.045-0.953,4.585-1.4c2.09-0.599,4.195-1.183,6.535-1.843c0.109,1.044,0.337,1.906,0.247,2.754
		c-0.325,2.857-0.646,5.749-1.201,8.582c-0.198,0.996-1.031,1.89-1.645,2.78c-0.491,0.693-1.075,1.309-1.322,2.447
		c0.507-0.063,1.136,0.045,1.492-0.229c1.968-1.557,3.166-3.663,3.474-6.123c0.416-3.459,0.6-6.951,0.923-10.873
		c1.249-0.4,2.553-0.877,3.895-1.246c1.888-0.493,3.719,0.508,3.581,2.368c-0.416,5.521,3.861,7.736,7.152,10.581
		c1.23,1.063,3.046,1.4,4.49,2.248c2.693,1.582,6.078,1.906,7.553,5.535c1.183,2.954,4.4,3.891,7.352,4.677
		c1.121,0.305,2.259,0.583,4.058,1.029C148.851,296.608,147.07,298.484,144.853,299.944z M172.739,288.411
		c3.214-2.37,6.674-4.122,10.69-4.415C180.168,286.179,176.614,287.688,172.739,288.411z M208.387,266.418
		c1.787-0.523,2.494,0.597,3.172,1.968c1.751,3.551,3.722,7.011,5.368,10.612c1.415,3.075,2.49,6.322,3.752,9.475
		c0.215,0.508,0.568,0.97,1.139,1.337c0.044-4.06-1.879-7.52-3.401-11.088c-1.522-3.555-3.028-7.121-4.644-10.903
		c4.92,0.382,9.535,1.474,13.997,3.228c2.692,1.046,5.382,2.153,7.967,3.444c1.09,0.555,2.23,1.492,2.739,2.539
		c2.123,4.413,4.135,8.89,5.921,13.44c1.075,2.785,1.645,5.754,2.523,8.616c0.167,0.584,0.675,1.059,1.306,1.459
		c-0.326-3.983-1.444-7.705-2.692-11.427c-1.231-3.707-3.583-7.028-4.445-11.721c2.661,1.276,4.662,2.107,6.552,3.168
		c3.047,1.692,6.03,3.493,8.998,5.354c1.646,1.031,3.031,2.106,3.724,4.291c1.292,3.983,3.247,7.752,4.968,11.598
		c0.211,0.507,0.644,0.905,1.306,1.215c-0.216-2.416-1.477-4.431-2.323-6.613c-0.906-2.307-1.721-4.632-2.63-7.107
		c3.538,1.6,6.907,3.647,11.507,2.783c-2.634-3.659-6.723-2.643-9.521-4.705c2.831-1.783,5.675-3.569,8.52-5.368
		c0.338-0.215,0.813-0.384,0.955-0.693c0.198-0.477,0.136-1.044,0.198-1.582c-0.446-0.033-1.017-0.262-1.324-0.076
		c-2.305,1.367-4.551,2.859-6.843,4.258c-1.089,0.679-2.23,1.293-3.416,1.832c-0.386,0.186-1.046,0.169-1.414-0.046
		c-6.121-3.692-12.243-7.429-18.348-11.183c-0.156-0.093-0.216-0.322-0.403-0.615c3.723-4.429,9.171-5.892,14.398-7.721
		c-0.049-0.2-0.078-0.398-0.124-0.601c-0.4-0.124-0.844-0.431-1.215-0.353c-4.644,0.891-9.213,2.122-12.78,5.491
		c-1.892,1.784-3.769,1.846-6.03,0.905c-4.154-1.689-8.336-3.29-12.536-4.859c-1.011-0.384-2.135-0.491-3.199-0.784
		c-1.49-0.4-2.983-0.844-4.473-1.292c-0.018-0.214-0.033-0.429-0.065-0.646c2.203-1.261,4.4-2.522,6.601-3.769
		c0.093-0.046,0.216-0.031,0.291-0.078c3.585-2.275,7.197-4.522,10.737-6.857c0.386-0.248,0.46-0.968,0.246-1.954
		c-4.276,2.429-8.551,4.894-12.876,7.262c-1.719,0.953-3.567,1.721-5.35,2.568c-0.447,0.215-0.969,0.353-1.306,0.658
		c-2.54,2.309-2.54,2.309-6.521,1.524c0.567-2.583,1.706-5.213,1.522-7.752c-0.169-2.46-1.692-4.83-2.769-7.6
		c2.181-1.936,2.628-4.813,2.521-7.935c-0.107-3.245,1.506-4.753,4.813-4.445c2.187,0.2,4.369,0.538,6.506,1.076
		c4.153,1.063,8.258,2.276,12.38,3.46c0.758,0.232,1.51,0.601,2.153,1.048c7.168,4.937,14.521,9.644,20.658,15.901
		c1.197,1.2,2.247,2.554,3.354,3.83c2.752,3.169,5.319,6.552,8.334,9.444c3,2.874,6.463,5.291,9.719,7.874
		c2.279,1.801,4.462,3.707,6.861,5.291c3.751,2.478,7.554,4.923,11.505,7.028c2.63,1.385,5.568,2.171,8.398,3.169
		c0.907,0.324,1.892,0.493,2.845,0.738v0.725c-1.83,0.782-3.692,1.475-5.475,2.368c-2.676,1.339-5.277,2.797-7.92,4.214
		c-0.431,0.246-0.8,0.615-1.262,0.815c-4.937,2.151-9.764,4.673-14.874,6.306c-4.537,1.463-9.366,2.045-14.102,2.783
		c-4.433,0.677-8.922,1.385-13.396,1.478c-5.583,0.136-11.227,0.047-16.765-0.662c-6.03-0.77-11.983-2.199-17.918-3.631
		c-2.785-0.675-5.535-1.799-8.105-3.105c-5.706-2.89-11.305-5.982-16.903-9.104c-1.875-1.048-3.858-2.124-4.842-4.525
		c3.688-3.212,7.408-6.352,11.024-9.626c2.736-2.478,4.848-5.308,4.415-9.351c-0.062-0.679,0.293-1.587,0.77-2.123
		c1.091-1.277,2.247-2.63,3.629-3.521C205.561,266.862,207.066,266.785,208.387,266.418z M200.869,233.765
		c3.461,3.214,4.306,8.458,1.368,12.565c-1.906,2.689-2.061,2.752,0.033,5.044c2.123,2.322,2.752,4.876,1.691,7.75
		c-1.259,3.478-2.539,7.032-7.059,7.6c-1.203,0.154-1.865,1.046-1.754,2.383c0.075,1.295,0.015,2.6,0.075,3.893
		c0.2,4.905-3.459,7.307-6.583,10.12c-2.996-0.861-5.906-1.029-8.918,0.448c-2.401,1.196-5.089,1.753-7.598,2.735
		c-1.832,0.724-3.478,1.371-5.431,0.231c-0.708-0.417-1.861-0.079-2.967-0.079c-0.356-1.535-0.369-3.012,2.383-3.273
		c-0.2-0.244-0.402-0.493-0.615-0.738c-2.907,0.214-5.815,0.509-8.736,0.614c-1.752,0.062-3.796,0.324-5.244-0.415
		c-2.586-1.324-5.061-0.662-7.616-0.569c3.106,1.832,6.815,1.032,10.182,2.401c-0.076,0.489-0.167,0.982-0.246,1.461
		c2.523-0.815,5.044-1.63,7.709-2.492c-1,4.551-2.572,5.921-6.83,6.197c-2.971,0.184-5.997,0.955-8.816-0.689
		c-0.921-0.54-2.044-1.033-2.583-1.879c-1.938-3.03-4.505-5.659-6.043-9.275c-2.723,1.602-4.737,0.539-6.629-1.43
		c-0.875-0.907-2.108-1.491-3.198-2.168c-2.398-1.46-3.353-3.6-2.909-6.537c0.066-0.367,0.155-0.846-0.012-1.122
		c-2.308-3.816-2.295-8.308-3.541-12.429c-0.582-1.936,0.479-5.352,2.092-7.766c1.123,2.445,2.477,4.553,3.078,6.845
		c0.831,3.15,2.077,5.828,5.168,7.505c-2.125,4.63,0.273,8.644,1.798,12.671c0.43,1.172,2.4,1.756,3.707,2.631
		c1.4-1.954,0.631-3.074-0.492-4.027c-3.151-2.646-4.397-5.676-2.785-9.813c0.662-1.661-0.675-3.646-1.843-4.722
		c-4.122-3.738-4.846-8.274-4.093-13.597c-1.803-0.491-1.938,1.4-2.909,2.32c-0.444-0.768-0.936-1.489-1.29-2.273
		c-0.463-0.985-0.986-1.553-2.231-1.615c-1.646-0.062-2.201-1.291-1.814-2.783c0.354-1.338,0.691-2.83,1.508-3.878
		c2.645-3.383,5.613-6.504,9.397-8.705c1.736-0.999,3.459-1.521,5.661,0.2c-2.707,1.815-4.278,4.245-4.554,7.353
		c-0.23,2.784-1.831,5.507-0.387,8.629c1.802-1.168,1.893-2.923,1.957-4.506c0.092-2.417,1.046-4.462,2.322-6.399
		c1.228-1.831,2.815-3.094,5.105-3.323c0.691-0.076,1.463-0.198,2.016-0.567c0.646-0.433,1.107-1.153,1.644-1.753
		c-0.829-0.339-1.66-0.924-2.506-0.986c-0.861-0.06-1.738,0.447-2.63,0.615c-0.445,0.076-0.936-0.044-1.86-0.105
		c4.645-6.614,10.228-10.659,18.533-10.059c-0.046,0.262-0.169,0.753-0.202,1.26c-0.062,1.537,0.631,2.062,2.016,1.292
		c1.569-0.894,2.985-1.322,4.829-0.784c0.815,0.247,2.063-0.523,2.938-1.075c2.847-1.831,5.894-2.463,9.182-1.771
		c1.753,0.386,2.863,1.231,3.938,3.016c1.755,2.92,4.475,5.292,6.999,7.689c1.168,1.139,3.136,1.462,3.445,3.459
		c3.86,2.787,3.092,6.771,2.75,10.63c-0.305,3.491-0.475,6.752,1.803,9.997c1.799,2.539,0.54,5.815-0.06,8.72
		c-0.264,1.354-1.4,3.078,0.366,3.631c1.954,0.615,2.044-1.491,2.123-2.8c0.202-3.585,0.402-7.183,0.202-10.766
		c-0.079-1.324-0.939-2.983-1.985-3.798c-1.278-1.016-1.491-2.03-1.356-3.353c0.247-2.155,0.573-4.306,0.909-6.815
		c2.694,4.323,4.633,8.582,4.937,13.565c1.048-1.506,1.03-3.197,0.571-4.66c-1.324-4.274-2.619-8.598-5.935-11.934
		c-0.755-0.77-1.093-1.952-1.663-3.029c1.922-1.124,3.339-1.002,4.367,0.398C197.177,230.842,199.13,232.164,200.869,233.765z
		 M448.692,238.334c-0.585,0.091-1.167,0.245-1.753,0.367c-3.121,0.647-6.246,1.693-9.398,1.892
		c-5.201,0.31-9.95,1.925-14.812,3.583c-3.951,1.354-8.137,2.049-12.194,3.076c-1.354,0.338-2.709,0.724-3.998,1.217
		c-2.785,1.077-5.51,1.275-8.491,0.569c-4.662-1.093-9.398-1.984-14.149-2.479c-3.247-0.334-6.585,0.215-9.875,0.2
		c-3.598-0.015-7.214-0.443-10.799-0.258c-3.782,0.182-7.568,0.644-11.272,1.396c-2.508,0.524-4.889,0.557-7.428,0.415
		c-5.935-0.291-11.167-2.983-16.72-4.58c-5.551-1.601-10.583-4.169-15.35-7.445c-1.659-1.141-3.86-1.632-5.875-2.141
		c-3.983-0.982-8.011-1.782-12.025-2.657c-0.385-0.078-0.831-0.339-1.155-0.233c-0.77,0.248-1.479,0.646-2.215,1.001
		c0.585,0.414,1.107,1.093,1.753,1.231c4.674,1.029,9.398,1.782,14.011,2.999c2.263,0.584,4.507,1.676,6.401,3.062
		c3.596,2.626,7.476,4.565,11.688,5.98c3.843,1.306,7.548,3.03,11.383,4.429c1.826,0.661,3.765,1.032,6.121,1.663
		c-1.603,0.508-2.817,0.831-4.001,1.291c-3.66,1.414-7.105,3.186-10.042,5.877c-2.69,2.46-5.784,3.903-9.599,3.138
		c-0.769-0.156-1.628-0.171-2.383,0.027c-0.878,0.219-1.677,0.738-2.812,1.277c0.689,0.586,0.966,1,1.275,1.033
		c5.549,0.46,10.766,0.414,15.439-3.77c2.737-2.444,6.554-3.83,10.077-5.215c3.981-1.553,8.274-2.337,12.258-3.891
		c5.198-2.044,10.597-1.844,15.965-2.001c4.86-0.138,9.749,0.017,14.607,0.248c3.477,0.169,6.925,0.705,10.399,1.063
		c1.262,0.138,2.522,0.214,4.107,0.353c-1.401,1.491-2.969,2.106-4.645,2.692c-4.971,1.784-9.97,3.552-14.81,5.658
		c-2.632,1.153-4.878,3.138-7.446,4.445c-3.555,1.813-7.214,3.414-10.859,5.015c-6.845,2.998-14.29,3.813-21.411,5.781
		c-6.117,1.71-12.225,1.524-18.454,1.276c-4.74-0.182-9.382-0.662-13.918-1.936c-5.631-1.601-10.815-4.14-15.753-7.261
		c-2.351-1.506-4.968-2.615-7.258-4.213c-2.938-2.048-5.644-4.445-8.503-6.646c-6.677-5.105-12.937-10.672-18.859-16.672
		c-2.645-2.692-5.815-4.875-8.844-7.152c-3.443-2.583-6.825-5.274-10.533-7.41c-6.016-3.445-12.567-5.741-19.334-7.214
		c-2.892-0.633-5.92-0.801-8.891-0.938c-1.354-0.077-2.723,0.523-4.089,0.66c-4.479,0.431-8.968,1.031-13.444,1.046
		c-1.341,0-3.06-1.49-3.938-2.754c-2.337-3.398-6.059-4.691-9.242-6.813c-0.77-0.521-1.584-1.307-1.91-2.136
		c-1.566-4.093-2.966-8.262-4.46-12.384c-0.477-1.306-1.122-2.568-1.566-3.889c-1.153-3.416-2.448-6.799-3.292-10.277
		c-0.629-2.643,0.844-4.842,2.614-6.719c3.415-3.602,7.385-6.491,11.798-8.674c2.952-1.462,5.304-3.568,7.536-5.846
		c2.337-2.383,5.063-3.953,8.382-4.292c4.138-0.446,7.953-1.737,11.687-3.583c2.31-1.139,4.94-1.615,7.34-2.597
		c2.954-1.215,5.83-2.586,8.689-4.016c0.617-0.322,1.2-1.076,1.415-1.768c0.353-1.061-0.491-1.706-1.568-1.308
		c-0.186,0.077-0.354,0.186-0.507,0.309c-3.891,3.292-8.751,4.198-13.446,5.552c-0.857,0.246-1.735,0.583-2.443,1.108
		c-3.767,2.782-8.104,3.059-12.842,3.199c0.922-6.861,4.796-11.553,9.273-16.043c4.999-5.027,9.631-10.443,14.488-15.61
		c3.416-3.645,7-7.153,10.43-10.783c1.446-1.507,2.69-3.198,4.122-4.937c-0.6-0.584-1.617-0.015-2.43,0.601
		c-1.984,1.505-3.983,3.028-5.801,4.738c-2.675,2.522-5.258,5.167-7.779,7.843c-0.938,1-1.554,2.322-2.432,3.397
		c-0.815,0.97-1.797,1.8-3.01,3.001c-0.724-3.092,0.691-5.169,1.626-7.4c1.384-3.305,2.676-6.659,3.893-10.042
		c0.353-0.969,0.26-2.093,0.369-3.154c-0.232-0.122-0.462-0.229-0.695-0.354c-0.491,0.601-1.12,1.122-1.411,1.8
		c-0.679,1.554-1.155,3.199-1.753,4.784c-1.522,3.999-3.078,7.968-4.601,11.965c-0.247,0.663-0.567,1.4-0.46,2.031
		c0.522,3.089-1.264,4.861-3.14,6.952c-3.261,3.628-7.412,6.536-9.537,11.091c-1.306,2.783-2.152,5.781-3.565,8.502
		c-1.079,2.078-2.572,4-4.151,5.752c-1.466,1.616-3.25,2.969-4.953,4.324c-1.25,0.983-2.526,2.029-3.973,2.63
		c-4.644,1.937-8.212,5.259-11.674,8.735c-0.875,0.862-1.783,1.677-3.15,2.939c-0.326-3.187-0.691-5.631-0.816-8.092
		c-0.155-2.892-0.155-5.798-0.093-8.69c0.078-4.584,0.154-9.167,0.433-13.751c0.14-2.275,0.689-4.519,1.044-6.783
		c0.217-1.383,0.522-2.768,0.568-4.168c0.28-7.751,1.908-15.287,3.756-22.763c1.845-7.382,4.353-14.564,7.61-21.472
		c3.678-7.795,8.755-14.718,13.721-21.684c6.228-8.767,14.12-16.011,22.207-23.024c1.188-1.031,2.694-1.708,4.047-2.553
		c3.629-2.292,7.137-4.83,10.923-6.83c6.348-3.352,12.718-6.598,19.825-8.383c7.103-1.799,14.224-3.214,21.562-3.49
		c6.383-0.246,12.764,0.23,19.148,0.415c4.999,0.138,9.98,0.061,14.95,0.739c5.753,0.771,11.397,1.875,16.813,4.121
		c4.708,1.955,9.611,3.399,14.41,5.137c1.215,0.431,2.339,1.123,3.507,1.708c4.904,2.491,9.828,4.922,14.688,7.489
		c4.953,2.631,9.875,5.308,14.733,8.091c8.937,5.168,17.104,11.474,25.135,17.919c5.736,4.613,11.195,9.613,16.455,14.78
		c8.413,8.258,16.382,16.979,24.871,25.163c6.83,6.583,13.644,13.195,21.117,19.116c3.691,2.924,7.675,4.492,12.071,5.478
		c7.061,1.567,13.734,4.229,20.321,7.15c5.951,2.646,11.978,5.076,17.962,7.645c4.212,1.814,8.354,3.829,12.644,5.491
		c3.043,1.182,6.304,1.859,9.431,2.89c3.211,1.062,6.408,2.184,9.533,3.461c4.15,1.692,8.289,3.46,12.331,5.382
		c3.801,1.8,7.461,3.878,11.2,5.785c1.321,0.691,2.69,1.308,4.059,1.923c5.646,2.568,11.229,5.275,16.952,7.612
		c6.674,2.723,13.118,5.844,19.425,9.306c5.411,2.981,10.873,5.906,16.195,9.042c6.168,3.631,12.229,7.461,18.317,11.23
		c5.506,3.412,10.999,6.857,16.457,10.335c2.094,1.339,3.984,2.952,5.263,5.352c-1.649,1.354-3.511,1.229-5.215,1.062
		c-5.875-0.585-11.813-0.585-17.565-2.215c-2.771-0.782-5.615-1.31-8.447-1.845c-1.362-0.262-2.781-0.247-4.165-0.433
		c-2.554-0.339-5.106-0.645-7.614-1.121c-5.306-1.015-10.552-2.308-15.889-3.185c-7.887-1.291-15.813-2.416-23.729-3.414
		c-5.171-0.662-10.367-1.092-15.566-1.446c-10.273-0.677-20.579-1.229-30.869-1.83c-0.509-0.03-1.029-0.169-1.491-0.062
		c-5.322,1.308-10.493-0.631-15.75-0.677c-5.674-0.063-11.365-0.569-17.011-1.155c-4.198-0.443-8.351-1.396-12.549-1.968
		c-3.953-0.521-7.953-0.8-11.918-1.244c-2.756-0.31-5.495-0.755-8.264-1c-1.569-0.153-3.185-0.153-4.751-0.017
		c-6.061,0.521-12.091,1.43-18.147,1.601c-7.507,0.198-15.028-0.231-22.533-0.308c-2.295-0.017-4.6,0.198-6.89,0.339
		c-4.491,0.291-8.984,0.491-13.459,0.938c-4.861,0.491-9.689,1.215-14.55,1.844c-1.584,0.2-3.216,0.723-4.738,0.522
		c-5.078-0.646-9.982,0.293-14.919,1.107c-7.414,1.216-14.826,2.368-22.238,3.584c-1.186,0.199-2.37,0.462-3.459,0.94
		c-0.54,0.214-1.231,1.031-1.169,1.475c0.107,0.658,0.704,1.461,1.306,1.769c0.644,0.325,1.554,0.276,2.323,0.154
		c6.121-0.97,12.229-1.984,18.348-3.016c2.059-0.337,4.138-0.693,6.197-1.168c4.11-0.937,8.23-1.432,12.476-1.261
		c2.459,0.107,5.075-0.017,7.412-0.706c5.474-1.631,11.094-1.814,16.673-2.078c9.384-0.461,18.793-0.417,28.193-0.739
		c6.889-0.245,13.78-0.829,20.671-1.076c4.907-0.184,9.858-0.446,14.717,0.018c11.95,1.137,23.886,2.551,35.789,4.091
		c10.847,1.383,21.733,1.659,32.654,1.954c7.568,0.184,15.133,1.015,22.717,1.504c6.491,0.431,12.983,0.816,19.473,1.233
		c0.601,0.031,1.214,0.031,1.798,0.122c6.229,0.938,12.46,1.924,18.689,2.83c1.77,0.247,3.568,0.291,5.369,0.429
		c0.382,0.033,0.799-0.045,1.183,0.048c6.229,1.4,12.441,2.923,18.7,4.198c3.03,0.614,6.153,0.722,9.229,1.124
		c1.046,0.138,2.075,0.445,3.106,0.677c-0.016,0.2-0.028,0.414-0.045,0.614c-1.815,0.2-3.631,0.584-5.446,0.569
		c-9.599-0.078-19.179-0.264-28.777-0.414c-8.209-0.126-16.376,0.397-24.547,1.198c-5.167,0.508-10.38,0.862-15.579,1.105
		c-4.981,0.217-9.966,0.141-14.966,0.31c-6.49,0.229-12.996,0.586-19.499,0.862c-1.693,0.076-3.403-0.017-5.093,0.06
		c-9.781,0.384-19.579,0.755-29.361,1.246c-2.676,0.139-5.397,0.446-8,1.092c-5.476,1.386-10.994,2.077-16.623,2.277
		c-2.355,0.091-4.675,1-7.03,1.43C453.998,237.564,451.337,237.9,448.692,238.334z M550.77,233.117
		c-1.12,3.153-1.98,5.616-2.843,8.028c-4.629-2.335-8.953-4.536-13.272-6.737c0.047-0.229,0.107-0.462,0.154-0.691
		C539.882,233.535,544.958,233.335,550.77,233.117z M598.85,273.061c-5.535,3.555-10.95,7.167-17.471,9.075
		c-5.415,1.599-10.459,4.46-15.612,6.89c-6.735,3.2-13.627,5.782-21.146,6.354c-3.076,0.229-6.138,0.768-9.213,1.139
		c-0.693,0.091-1.399,0.168-2.09,0.105c-8.295-0.614-16.582-1.029-24.842-1.953c-7.765-0.877-15.119-3.631-22.639-5.645
		c-6.77-1.816-11.554-6.2-16.564-10.442c-3.585-3.03-6.845-6.446-10.476-9.398c-4.215-3.414-6.598-7.75-7.305-12.964
		c-0.539-4.063-0.632-8.183-0.926-12.273c-0.073-1.155,0.356-1.986,1.524-2.263c2.813-0.661,5.629-1.416,8.473-1.859
		c1.049-0.153,2.31,0.291,3.296,0.814c3.151,1.692,6.179,3.614,9.316,5.32c5.107,2.753,10.198,5.539,15.397,8.107
		c6.537,3.245,13.165,6.305,19.78,9.396c1.246,0.584,2.121,1.168,2.34,2.769c0.104,0.922,1.073,1.797,1.795,2.568
		c0.894,0.938,2.139,1.568,2.847,2.615c1.493,2.184,3.187,4.013,5.475,5.442c1.077,0.677,1.878,2.063,2.416,3.308
		c1.586,3.63,1.659,3.769,5.953,4.738c0.169-1.399-1.048-1.554-1.753-2.028c-1.415-0.972-2.769-1.801-3.11-3.785
		c-0.151-0.937-1.073-1.923-1.906-2.538c-2.214-1.662-3.903-3.585-5.135-6.105c-0.782-1.632-2.399-2.861-3.647-4.276
		c0.062-0.153,0.107-0.291,0.154-0.446c1.603,0.432,3.186,0.923,4.799,1.309c4.353,1.029,8.724,1.968,13.074,3.028
		c0.844,0.198,1.632,0.74,2.431,1.155c0.34,0.184,0.662,0.676,0.953,0.644c4.646-0.477,6.86,3.476,10.091,5.508
		c1.676,1.044,3.163,2.397,4.812,3.536c0.31,0.215,0.862,0.076,1.984,0.154c-2.721-3.861-6.921-5.168-9.675-8.689
		c1.261,0,2.219-0.156,3.108,0.029c2.032,0.4,3.951,0.341,5.89-0.462c0.662-0.26,1.584-0.182,2.275,0.033
		c3.926,1.246,7.926,0.751,11.905,0.6c0.571-0.015,1.124-0.494,1.569-1.247c-1.613-0.139-3.243-0.291-4.861-0.4
		c-2.274-0.137-4.506-0.015-6.749-1.029c-1.202-0.554-2.939-0.015-4.414,0.2c-2.661,0.401-5.278,0.382-7.952-0.463
		c5.386-3.488,11.628-4.736,17.289-7.352c-0.497-1.521-1.463-0.968-2.279-0.83c-6.305,1.077-11.964,3.877-17.688,6.523
		c-1.967,0.905-3.922,1.398-6.09,0.829c-5.105-1.339-10.259-2.522-15.321-3.983c-2.737-0.801-5.333-2.077-8.767-3.447
		c4.37-1.245,8.277-1.537,12.073-2.273c3.786-0.74,7.6-1.341,11.878-2.061c-2.215-1.601-4.169-1.324-6.106-1.016
		c-6.124,0.938-12.227,1.891-18.351,2.846c-0.184,0.028-0.428-0.029-0.586,0.076c-3.441,2.153-5.966-0.31-8.704-1.739
		c-0.692-0.367-1.417-0.862-2.168-0.953c-3.001-0.353-5.26-2.122-7.69-3.707c-2.322-1.521-4.968-2.568-7.459-3.874
		c-2.353-1.229-4.679-2.554-7.013-3.831c0.044-0.247,0.075-0.477,0.122-0.724c2.798-0.415,5.584-0.968,8.384-1.215
		c2.474-0.215,4.98-0.077,7.472-0.091c2.909-0.017,5.83-0.231,8.706,0.047c1.848,0.182,3.646,0.999,5.398,1.659
		c1.417,0.542,2.661,0.771,4.074-0.97c-1.55-0.555-2.859-1.17-4.229-1.446c-2.429-0.521-4.89-1.075-7.351-1.168
		c-4.677-0.186-9.352-0.214-14.012,0c-3.185,0.139-6.432,0.446-9.491,1.261c-3.566,0.955-5.78-0.953-8.239-3.028
		c4.798-0.814,9.626-1.463,14.379-2.463c7.241-1.522,14.58-0.877,21.854-1.291c1.508-0.077,2.997-0.322,4.489-0.383
		c1.771-0.076,3.541-0.338,5.23,0.768c0.725,0.477,1.923,0.337,2.874,0.263c9.615-0.862,18.767,0.353,26.904,5.984
		c4.26,2.95,8.414,6.042,12.565,9.135c3.014,2.244,5.813,4.798,8.951,6.858c2.89,1.906,5.951,3.768,9.196,4.89
		c6.613,2.244,13.349,4.152,20.134,5.848c2.459,0.611,5.168,0.242,7.767,0.335c0.477,0.033,0.951,0.171,2.077,0.371
		C601.555,270.893,600.298,272.137,598.85,273.061z"/>
	<path fill-rule="evenodd" clip-rule="evenodd" fill="#9A9E9D" d="M440.42,290.934c-2.48-0.724-4.416-2.847-7.201-2.71
		c-0.229,0.017-0.477-0.215-0.707-0.337c0.356-0.783,0.649-1.489,1.033-2.368c-4.524-2.554-9.077-4.491-13.939-5.396
		c1.157-1.524,2.34-3.063,3.848-5c-3.184-0.479-5.892-1.108-8.626-1.216c-3.891-0.154-7.69,0.646-11.539,1.309
		c-3.383,0.569-6.568,1.245-9.858,2.259c-1.135-0.322-2.368-1.092-3.384-0.875c-4.245,0.894-6.966,4.152-9.644,7.169
		c-1.875,2.105-3.028,4.842-4.536,7.286c-0.261,0.418-0.615,0.833-1.017,1.093c-3.351,2.156-6.672,4.354-10.103,6.368
		c-1.155,0.677-2.138,1.246-1.706,2.692c0.323,1.107,2.242,1.725,3.583,1.246c1.306-0.477,2.598-1.046,3.905-1.522
		c5.673-1.982,10.813-1.415,15.181,3.106c0.831,0.86,1.708,1.721,2.707,2.368c1.152,0.723,2.43,1.478,3.752,1.754
		c6.585,1.368,13.289,1.691,19.981,1.2c5.257-0.386,10.487-1.248,15.668,0.432c0.186,0.06,0.42,0.167,0.588,0.105
		c0.771-0.261,1.522-0.584,2.293-0.875c-0.325-0.786-0.479-1.695-0.985-2.34c-0.615-0.785-1.524-1.353-2.521-2.197
		c0.739-0.279,0.997-0.418,1.277-0.479c2.52-0.567,2.674-0.877,1.55-3.136c-0.293-0.586-0.567-1.17-0.89-1.863
		c1.675-0.443,3.104-1.073,4.567-1.167c2.199-0.124,3.445-0.847,2.828-3.322c1.337-0.291,2.447-0.414,3.462-0.814
		c0.555-0.215,1.153-0.831,1.291-1.386C441.384,291.948,440.831,291.054,440.42,290.934z M391.661,286.627
		c1.769-2.521,3.338-4.799,4.986-7.029c0.335-0.445,0.903-0.8,1.442-1c5.675-2.244,11.63-2.645,17.646-2.721
		c0.382,0,0.78,0.152,1.151,0.291c0.276,0.093,0.508,0.292,1.137,0.662c-0.462,0.814-0.702,1.844-1.369,2.398
		c-3.615,3-7.396,5.659-12.318,6.243c-2.541,0.293-5.044,1.063-7.505,1.799C395.076,287.811,393.522,287.58,391.661,286.627z
		 M392.614,293.224c0.847-0.646,1.678-1.306,2.54-1.938c0.398-0.294,1.091-0.431,1.215-0.798c0.891-2.523,3.077-2.463,5.151-2.8
		c3.646-0.6,7.257-1.447,10.917-1.909c2.465-0.322,4.985-0.244,7.478-0.215c0.66,0.017,1.326,0.538,2.461,1.031
		c-1.322,0.692-2.077,1.093-3.505,1.83h6.659c0.031,0.216,0.063,0.445,0.107,0.662c-3.06,0.631-6.092,1.382-9.166,1.846
		c-1.54,0.229-2.921,0.384-4.034,1.63c-0.565,0.629-1.381,1.354-2.146,1.43c-4.373,0.431-8.754,0.801-13.138,0.938
		c-1.478,0.048-2.985-0.646-4.477-1C392.662,293.702,392.629,293.455,392.614,293.224z M423.329,294.24
		c-2.259,1.492-4.532-0.293-6.779-0.201C418.838,292.64,421.085,293.471,423.329,294.24z M417.992,306.175
		c-6.073,0.354-12.148,2.031-18.226,0.047c-0.093-0.03-0.229,0-0.295-0.062c-0.365-0.417-1.015-0.831-1.027-1.278
		c-0.015-0.432,0.555-0.938,0.955-1.307c1.613-1.462,3.553-1.691,4.966-1.43c3.399,0,6.183-0.156,8.92,0.061
		c1.646,0.14,3.279,0.785,4.86,1.369c0.401,0.153,0.831,0.909,0.814,1.368C418.945,305.391,418.363,306.16,417.992,306.175z
		 M427.1,301.469c-2.4-0.262-4.816-0.462-7.212-0.8c-5.972-0.815-11.919-1.263-17.905-0.231c-2.923,0.493-4.182-0.369-5.228-3.354
		c3.935-0.366,7.672-0.908,11.44-1.03c2.096-0.062,4.213,0.601,6.323,0.908c1.38,0.2,2.767,0.4,4.134,0.553
		c1.203,0.14,2.354,0.109,3.062,1.463c0.219,0.429,1.126,0.555,1.739,0.722c1.262,0.322,2.554,0.584,3.813,0.875
		C427.222,300.869,427.158,301.16,427.1,301.469z M425.929,297.314c-0.029-0.2-0.076-0.413-0.124-0.629
		c1.741-0.448,3.464-0.894,5.185-1.339c0.078,0.338,0.154,0.677,0.229,1.015C429.452,296.686,427.698,296.992,425.929,297.314z
		 M428.928,290.41c2.785,0.507,5.554,1.015,8.398,1.538C434.621,294.315,433.819,294.21,428.928,290.41z"/>
	<path fill-rule="evenodd" clip-rule="evenodd" fill="#9A9E9D" d="M534.813,233.721c5.074-0.191,10.151-0.386,15.957-0.605
		c-1.116,3.163-1.984,5.609-2.841,8.034c-4.624-2.343-8.949-4.54-13.276-6.735C534.703,234.183,534.758,233.953,534.813,233.721z"/>
	<path fill-rule="evenodd" clip-rule="evenodd" fill="#9A9E9D" d="M172.739,288.413c3.214-2.363,6.672-4.118,10.695-4.422
		C180.163,286.185,176.608,287.682,172.739,288.413z"/>
	<path fill-rule="evenodd" clip-rule="evenodd" fill="#9A9E9D" d="M596.72,233.046c0.723-2.225,1.746-2.265,3.178-1.36
		C599.012,232.063,598.133,232.44,596.72,233.046z"/>
	<path fill-rule="evenodd" clip-rule="evenodd" fill="#9A9E9D" d="M284.899,201.234c-3.796-0.142-7.531-0.065-11.094-2.001
		c-2.543-1.382-4.622-3.15-6.396-5.298c-2.604-3.156-5.085-6.42-7.487-9.737c-1.166-1.611-2.081-3.416-3.012-5.184
		c-1.44-2.736-2.699-5.566-4.218-8.257c-2.094-3.72-3.389-7.633-3.86-11.893c-0.428-3.87-1.213-7.699-1.759-11.558
		c-0.795-5.635,0.034-11.223,1.082-16.71c0.986-5.191,2.776-10.146,5.035-15.021c1.768-3.814,3.205-7.762,5.899-11.024
		c4.073-4.933,8.318-9.713,13.215-13.887c3.41-2.906,6.532-6.165,10.069-8.905c2.825-2.187,6.048-3.873,9.149-5.686
		c1.725-1.007,3.567-1.813,5.357-2.714c5.824-2.93,12.138-3.964,18.52-4.688c2.381-0.269,4.786-0.364,7.178-0.578
		c9.35-0.833,18.226,1.614,27.063,4.079c3.33,0.928,6.655,2.078,8.912,5.135c0.645,0.877,2.066,1.147,3.055,1.803
		c4.665,3.108,9.362,6.121,12.909,10.655c3.492,4.466,8.178,7.986,10.737,13.195c1.536,3.128,3.134,6.287,4.132,9.602
		c1.176,3.897,2.235,7.951,2.474,11.989c0.866,14.933-2.109,28.836-11.731,40.865c-2.752,3.439-5.214,7.072-8.866,9.671
		c-0.887,0.633-1.616,1.499-2.377,2.294c-4.378,4.534-9.726,7.157-15.894,8.266c-1.463,0.264-2.878,0.838-4.28,1.36
		c-4.34,1.613-8.706,2.917-13.437,2.733c-8.798-0.346-17.122,1.648-24.901,5.706c-6.135,3.2-12.809,4.458-19.477,5.729
		C288.962,201.544,286.899,201.234,284.899,201.234z"/>
	<path fill-rule="evenodd" clip-rule="evenodd" fill="#9A9E9D" d="M424.819,144.061c7.494,1.191,15.002,2.314,22.481,3.605
		c4.619,0.798,9.215,1.783,13.79,2.823c2.524,0.576,5.021,1.331,7.47,2.188c8.124,2.84,16.262,5.638,24.298,8.709
		c3.718,1.42,7.245,3.367,10.797,5.198c3.529,1.822,6.636,4.49,10.69,5.264c0.413,0.08,0.982,0.517,1.088,0.892
		c0.523,1.909,2.261,2.31,3.594,3.315c2.716,2.06,5.925,3.898,6.397,7.809c0.097,0.808,0.03,2.037-0.472,2.441
		c-1.728,1.394-3.326,2.849-6.038,2.663c-3.764-0.255-7.576,0.262-11.365,0.451c-0.691,0.032-1.479,0.306-2.054,0.062
		c-2.836-1.219-5.833-0.706-8.754-0.975c-3.074-0.282-6.167-0.446-9.227-0.837c-2.97-0.379-5.909-1.019-8.876-1.463
		c-2.073-0.309-4.163-0.509-6.25-0.72c-2.906-0.293-5.856-0.282-8.424-2.108c-0.762-0.542-1.89-0.642-2.868-0.791
		c-7.947-1.225-15.643-3.281-23.135-6.269c-4.818-1.921-9.936-3.077-14.805-4.882c-3.644-1.35-7.431-2.718-10.546-4.93
		c-3.372-2.396-7.005-5.157-6.841-10.165c0.018-0.683-0.097-1.499,0.226-2.02c3.104-5.031,6.917-9.084,13.389-9.364
		c1.792-0.078,3.572-0.387,5.36-0.59C424.769,144.264,424.794,144.163,424.819,144.061z"/>
	<path fill-rule="evenodd" clip-rule="evenodd" fill="#9A9E9D" d="M492.958,287.671c-6.573-9.484-13.504-18.743-17.874-29.565
		c0.176-0.162,0.353-0.324,0.527-0.483c0.78,0.778,1.742,1.443,2.297,2.354c1.518,2.459,2.865,5.023,4.268,7.549
		c1.395,2.51,2.692,5.02,4.437,7.381c2.794,3.783,4.869,8.1,7.243,12.19C493.559,287.287,493.259,287.478,492.958,287.671z"/>
	<path fill-rule="evenodd" clip-rule="evenodd" fill="#9A9E9D" d="M475.602,256.792c-2.484,0.244-3.465-1.044-3.733-2.832
		c-0.364-2.427-1.138-4.989,1.255-7.14C473.954,250.153,472.541,253.98,475.602,256.792z"/>
	<path fill-rule="evenodd" clip-rule="evenodd" fill="#9A9E9D" d="M183.605,255.397c2.749,1.217,1.061,3.594,1.295,5.458
		c3.421-1.262,5.566-3.56,6.805-6.843c0.542,1.906,0,3.452-1.337,4.731c-0.724,0.688-1.482,1.354-2.312,1.906
		c-3.443,2.286-4.884,6.231-7.607,9.122c-0.868,0.92-1.595,1.647-2.932,1.776c-1.182,0.111-2.317,0.621-3.494,0.834
		c-1.235,0.22-2.499,0.424-3.747,0.401c-1.946-0.03-3.763,0.146-5.39,1.634c0.835,1.815,2.265,2.31,4.078,2.559
		c4.393,0.603,8.247-1.111,12.085-2.715c1.12-0.47,1.806-1.976,2.695-3.009c2.192,2.073,1.793,2.921-3.512,7.425
		c0.477,0.346,0.924,0.666,1.437,1.033c-0.282,0.165-0.587,0.485-0.764,0.426c-3.622-1.199-7.325,0.251-10.957-0.366
		c-1.273-0.216-2.616-0.289-3.782-0.772c-0.822-0.342-1.572-1.17-2.052-1.963c-0.717-1.191-1.169-2.537-1.766-3.891
		c3.159-0.993,6.223-2.417,9.864-2.372c2.326,0.029,4.724-1.209,6.977-2.148c0.644-0.271,1.041-1.44,1.292-2.275
		C181.545,262.833,182.505,259.288,183.605,255.397z"/>
	<path fill-rule="evenodd" clip-rule="evenodd" fill="#9A9E9D" d="M156.475,273.13c0.165,0.025,0.86-0.065,1.095,0.222
		c0.77,0.95,1.731,1.984,1.884,3.089c0.082,0.58-1.264,1.805-2.13,1.993c-2.419,0.531-4.918,0.702-7.392,0.953
		c-1.36,0.139-2.792,0.423-4.091,0.151c-1.907-0.398-3.744-1.181-5.548-1.948c-0.311-0.135-0.545-1.141-0.36-1.521
		c0.158-0.327,1.149-0.629,1.464-0.438c2.757,1.688,5.874,0.808,8.784,1.328c2.439,0.438,4.564-0.894,6.754-2.115
		c-2.416-0.739-4.846-1.441-7.245-2.23c-2.814-0.924-4.157-3.132-5.101-5.646c0.151-0.179,0.303-0.356,0.455-0.539
		c0.76,0.515,1.599,0.946,2.272,1.558c2.377,2.151,5.122,2.415,8.122,1.844c1.559-0.298,3.152-0.464,4.74-0.565
		c0.391-0.025,1.122,0.398,1.155,0.675c0.056,0.5-0.157,1.35-0.506,1.517C159.343,272.155,157.762,272.651,156.475,273.13z"/>
	<path fill-rule="evenodd" clip-rule="evenodd" fill="#9A9E9D" d="M146.548,246.864c-3.569-2.809-4.505-7.235-2.475-10.938
		c1.725-3.14,5.276-5.01,8.875-4.632c0.358,0.037,0.702,0.284,1.041,0.459c1.473,0.751,2.965,1.473,4.402,2.284
		c0.449,0.255,0.757,0.761,1.131,1.151c-0.437,0.354-0.828,0.791-1.315,1.028c-0.31,0.154-0.866,0.163-1.141-0.017
		c-2.214-1.436-4.731-1.004-7.125-1.151c-0.671-0.044-1.681,0.651-2.053,1.287c-1.206,2.052-1.397,4.369-0.864,6.658
		C147.327,244.311,147.54,245.497,146.548,246.864z"/>
	<path fill-rule="evenodd" clip-rule="evenodd" fill="#9A9E9D" d="M166.764,219.773c0.573-0.027,1.184-0.2,1.719-0.059
		c2.188,0.575,4.36,1.221,6.524,1.902c0.453,0.143,0.915,0.466,1.215,0.833c1.453,1.785,3.281,2.849,5.779,2.949
		c-0.164,0.831-0.29,1.475-0.413,2.117c4.274,3.303,7.318,9.771,5.886,13.015c-0.409-0.504-0.85-0.862-1.048-1.324
		c-0.822-1.921-1.55-3.882-2.365-5.81c-0.225-0.543-0.503-1.166-0.951-1.492c-2.479-1.808-4.66-3.847-6.379-6.442
		c-0.926-1.398-2.432-1.965-4.266-2.303c-2.03-0.375-3.856-1.849-5.773-2.845C166.719,220.137,166.74,219.955,166.764,219.773z"/>
	<path fill-rule="evenodd" clip-rule="evenodd" fill="#9A9E9D" d="M142.3,258.675c0.006,2.439-0.043,4.418-2.286,5.877
		c-0.31-2.092-1.349-3.361-3.161-4.127c-0.606-0.261-0.969-1.199-1.335-1.887c-0.417-0.789-0.547-1.786-1.098-2.44
		c-2.061-2.439-0.864-5.174-0.775-7.768c0.039-1.065,1.094-1.818,2.197-1.196c0.442,0.243,0.833,1.601,0.59,1.884
		c-1.897,2.211-0.894,4.341,0.036,6.427C137.508,257.778,139.439,258.85,142.3,258.675z"/>
	<path fill-rule="evenodd" clip-rule="evenodd" fill="#9A9E9D" d="M146.523,256.351c-1.394-0.424-2.534-0.784-2.76-2.203
		c-0.506-3.121-2.538-5.384-4.396-7.697c-1.149-1.436-1.591-2.783-1.347-4.653c0.233-1.822-0.132-3.726-0.25-5.857
		c0.525-0.218,1.302-0.534,2.464-1.013c0.171,1.211,0.344,2.145,0.432,3.087c0.262,2.752,0.458,5.511,0.755,8.258
		c0.062,0.561,0.391,1.128,0.704,1.615c1.448,2.227,2.966,4.407,4.363,6.661C146.729,254.937,146.523,255.606,146.523,256.351z"/>
	<path fill-rule="evenodd" clip-rule="evenodd" fill="#9A9E9D" d="M176.155,234.958c-3.06-1.044-5.631-1.976-8.243-2.787
		c-1.781-0.551-3.547-1.224-5.488-0.175c-0.491,0.264-1.522-0.473-2.849-0.941c2.708-2.066,4.802-3.245,7.623-2.205
		c1.761,0.644,3.684,0.844,5.432,1.516C174.437,231.058,175.711,232.396,176.155,234.958z"/>
	<path fill-rule="evenodd" clip-rule="evenodd" fill="#9A9E9D" d="M166.35,221.894c-0.047,2.736-0.1,2.785-2.289,2.397
		c-0.886-0.156-1.782-0.254-2.637-0.494c-3.336-0.921-6.286-0.308-8.868,2.031c-0.329,0.299-0.788,0.451-1.237,0.697
		c-0.567-2.351-0.102-3.787,1.584-4.5c3.032-1.292,6.055-2.496,9.446-0.925C163.559,221.657,165.023,221.648,166.35,221.894z"/>
	<path fill-rule="evenodd" clip-rule="evenodd" fill="#9A9E9D" d="M158.725,240.851c-1.759,2.416-3.382,4.54-4.853,6.764
		c-0.298,0.447-0.238,1.356,0.013,1.888c0.274,0.575,0.938,0.984,1.473,1.415c0.862,0.698,1.49,1.482,0.567,2.497
		c-0.906,0.997-1.573,0.168-2.231-0.46c-1.604-1.542-3.09-3.077-2.805-5.63c0.188-1.711-0.049-3.381,2.383-3.788
		c0.724-0.122,1.27-1.419,1.863-2.209C156.105,240.021,157.169,239.507,158.725,240.851z"/>
	<path fill-rule="evenodd" clip-rule="evenodd" fill="#9A9E9D" d="M151.562,256.461c2.064,1.568,4.076,3.19,6.193,4.675
		c2.558,1.795,4.948,0.255,7.301-0.662c1.151,2.01,0.729,3.42-1.275,3.707c-1.837,0.26-4.042,0.71-5.537-0.027
		c-2.797-1.369-5.608-3.092-7.054-6.164c-0.115-0.247-0.078-0.592-0.035-0.881C151.179,256.938,151.352,256.785,151.562,256.461z"/>
	<path fill-rule="evenodd" clip-rule="evenodd" fill="#9A9E9D" d="M191.667,266.818c2.249,1.651,2.472,4.253,0.713,6.239
		c-1.572,1.778-3.172,3.547-4.908,5.162c-0.495,0.46-1.5,0.371-2.921,0.671c1.852-2.889,2.542-5.611,5.109-7.011
		C191.591,270.831,191.136,268.779,191.667,266.818z"/>
	<path fill-rule="evenodd" clip-rule="evenodd" fill="#9A9E9D" d="M177,251.668c0.513,0.592,1.257,1.101,1.493,1.786
		c1.073,3.105-0.942,8.871-3.749,10.756c-0.425,0.285-1.493,0.302-1.737,0.005c-0.336-0.403-0.415-1.358-0.162-1.839
		c0.5-0.941,1.43-1.651,1.961-2.586c1.33-2.351,2.428-4.791,1.193-7.711C176.332,251.943,176.665,251.805,177,251.668z"/>
	<path fill-rule="evenodd" clip-rule="evenodd" fill="#9A9E9D" d="M170.611,237.944c1.908,0.873,3.668,1.685,4.764,3.448
		c1.184,1.903,3.401,3.138,3.7,5.601c0.082,0.699-0.078,1.432-0.125,2.148c-0.688-0.411-1.408-0.771-2.039-1.255
		c-0.288-0.22-0.413-0.669-0.575-1.029c-0.999-2.292-2.319-4.314-4.382-5.834C171.051,240.36,169.993,239.616,170.611,237.944z"/>
	<path fill-rule="evenodd" clip-rule="evenodd" fill="#9A9E9D" d="M170.209,248.478c-0.487-0.449-1.127-0.811-1.442-1.36
		c-1.146-2.024-2.863-3.26-5.04-3.935c-0.288-0.091-0.682-0.104-0.83-0.302c-0.375-0.511-0.644-1.105-0.958-1.666
		c0.591-0.266,1.204-0.801,1.763-0.746C167.436,240.825,170.078,243.685,170.209,248.478z"/>
	<path fill-rule="evenodd" clip-rule="evenodd" fill="#9A9E9D" d="M182.276,239.956c2.56,2.603,4.003,5.759,4.254,9.444
		c0.037,0.518-0.558,1.082-0.862,1.626c-0.499-0.396-1.466-0.852-1.426-1.183c0.344-2.836-1.48-4.862-2.439-7.21
		c-0.304-0.75-0.275-1.63-0.398-2.45C181.696,240.105,181.987,240.032,182.276,239.956z"/>
	<path fill-rule="evenodd" clip-rule="evenodd" fill="#9A9E9D" d="M167.097,255.636c3.489-0.299,6.401-1.51,7.894-4.989
		C174.704,255.153,172.079,256.8,167.097,255.636z"/>
	<path fill-rule="evenodd" clip-rule="evenodd" fill="#9A9E9D" d="M153.34,263.708c-1.108-0.27-2.225-0.493-3.313-0.818
		c-0.673-0.2-1.34-0.491-1.92-0.875c-0.14-0.093-0.004-1.006,0.129-1.039c0.709-0.18,1.544-0.44,2.183-0.218
		c1.399,0.489,2.687,1.266,2.883,2.994L153.34,263.708z"/>
	<path fill-rule="evenodd" clip-rule="evenodd" fill="#9A9E9D" d="M160.334,247.574c0.859-0.033,1.974-0.426,2.525-0.031
		c1.563,1.115,2.279,2.813,2.165,4.837c-1.322-1.739-2.004-4.077-4.9-4.029C160.194,248.091,160.263,247.832,160.334,247.574z"/>
	<path fill-rule="evenodd" clip-rule="evenodd" fill="#9A9E9D" d="M153.302,263.752c2.441,1.165,4.88,2.331,7.319,3.497
		c-0.138,0.251-0.276,0.497-0.409,0.748c-2.819-0.48-4.915-2.263-6.872-4.289L153.302,263.752z"/>
	<path fill-rule="evenodd" clip-rule="evenodd" fill="#9A9E9D" d="M165.369,257.094c-1.002-0.108-2.005-0.218-3.005-0.327
		c0.034-0.298,0.069-0.599,0.102-0.898c1.006,0.104,2.006,0.206,3.01,0.308C165.438,256.481,165.405,256.789,165.369,257.094z"/>
	<path fill-rule="evenodd" clip-rule="evenodd" fill="#9A9E9D" d="M142.809,231.198c0.934-0.984,1.87-1.969,2.808-2.95
		c0.137,0.118,0.28,0.232,0.419,0.351c-0.847,1.055-1.694,2.11-2.541,3.169C143.265,231.578,143.039,231.389,142.809,231.198z"/>
	<path fill-rule="evenodd" clip-rule="evenodd" fill="#9A9E9D" d="M97.6,175.005c4.194,0.928,7.107,4.071,10.607,6.192
		C103.883,180.506,100.43,178.294,97.6,175.005z"/>
</g>
<g>
	<path fill="#434847" d="M202.708,127.839c-1.331,3.074-3.012,5.512-5.04,7.315c-2.028,1.803-4.364,3.063-7.008,3.781
		c-2.641,0.716-5.521,1.076-8.635,1.076c-2.581,0-5.04-0.226-7.375-0.677c-2.336-0.45-4.499-1.259-6.486-2.428
		c-1.986-1.167-3.791-2.745-5.41-4.733c-1.619-1.987-2.99-4.517-4.118-7.591c-1.126-3.073-1.997-6.731-2.612-10.972
		c-0.615-4.241-0.922-9.21-0.922-14.906c0-5.737,0.318-10.767,0.953-15.09c0.635-4.324,1.526-8.063,2.674-11.218
		c1.148-3.156,2.552-5.758,4.211-7.807c1.659-2.048,3.525-3.688,5.593-4.917c2.07-1.229,4.313-2.089,6.732-2.581
		c2.416-0.492,4.977-0.738,7.683-0.738c2.663,0,5.184,0.287,7.56,0.86c2.377,0.574,4.507,1.639,6.394,3.196
		c1.884,1.558,3.452,3.74,4.702,6.546c1.25,2.807,1.27,2.948,1.27,2.948c0.637,4.379,2.126,7.962,3.311,7.962
		c1.182,0,2.031-3.619,1.886-8.042l-0.209-6.351c-0.146-4.424-1.994-8.568-4.105-9.21c0,0,0,0-2.028-0.492
		c-2.03-0.492-4.078-0.911-6.148-1.259c-2.07-0.349-4.107-0.615-6.115-0.799c-2.008-0.185-3.915-0.277-5.717-0.277
		c-6.394,0-12.181,1.117-17.365,3.35c-5.184,2.234-9.599,5.43-13.246,9.589c-3.649,4.159-6.454,9.169-8.422,15.029
		c-1.968,5.86-2.95,12.416-2.95,19.67c0,7.089,0.931,13.461,2.798,19.116c1.862,5.655,4.547,10.46,8.05,14.414
		c3.505,3.956,7.767,6.998,12.787,9.128c5.021,2.131,10.665,3.197,16.935,3.197c1.966,0,4.087-0.103,6.363-0.307
		c2.273-0.206,4.578-0.502,6.914-0.892s4.64-0.861,6.916-1.414c2.274-0.553,2.274-0.553,2.274-0.553
		c2.248-0.727,4.216-4.94,4.373-9.363l0.291-8.259c0.156-4.423-0.682-8.042-1.868-8.042c-1.182,0-2.729,3.574-3.436,7.943
		C204.158,124.042,204.04,124.766,202.708,127.839z"/>
</g>
<g>
	<path fill="#434847" d="M238.916,61.571c0-4.425-3.62-8.046-8.047-8.046h-4.191c-4.425,0-8.047,1.106-8.047,2.459
		c0,1.352,2.075,2.458,4.611,2.458s4.611,3.621,4.611,8.046v63.386c0,4.426-2.075,8.046-4.611,8.046s-4.611,1.107-4.611,2.458
		c0,1.353,3.622,2.459,8.047,2.459h13.413c4.424,0,8.045-1.107,8.045-2.459c0-1.351-2.075-2.458-4.611-2.458
		s-4.609-3.621-4.609-8.046V61.571z"/>
</g>
<g>
	<path fill="#434847" d="M303.315,138.667c0,0,0,0-1.024,0c-1.193,0-2.125-0.168-2.776-0.466c-0.651-0.316-1.137-0.819-1.471-1.546
		c-0.335-0.708-0.541-1.676-0.615-2.887c-0.075-1.211-0.131-2.72-0.131-4.508c0-1.769,0.02-3.8,0.038-6.128
		c0.018-2.309,0.056-4.6,0.093-6.854c0.038-2.254,0.074-4.303,0.093-6.166c0.02-1.862,0.038-3.222,0.038-4.042
		c0-3.279-0.409-6.016-1.211-8.232c-0.8-2.217-1.992-3.986-3.558-5.309c-1.582-1.342-3.501-2.291-5.773-2.869
		c-2.292-0.559-4.898-0.857-7.842-0.857c-3.65,0-6.835,0.372-9.555,1.118c-2.738,0.726-5.011,1.714-6.835,2.942
		c-1.826,1.229-3.185,2.626-4.116,4.21c-0.913,1.583-1.379,3.204-1.379,4.88c0,1.08,0.167,2.012,0.522,2.812
		c0.353,0.782,0.8,1.453,1.377,1.994c0.579,0.521,1.25,0.912,2.032,1.154c0.782,0.261,1.583,0.373,2.403,0.373
		c1.917,0,3.445-0.578,4.543-1.713c1.099-1.155,1.657-2.589,1.657-4.303c0-1.025-0.222-2.067-0.708-3.11
		c-0.465-1.043-0.465-1.043-0.465-1.043c-0.95-1.062-0.577-2.589,0.82-3.409c0,0,0,0,1.731-0.484
		c1.751-0.503,3.725-0.746,5.942-0.746c3.316,0,5.737,0.746,7.283,2.235c1.526,1.509,2.308,4.116,2.308,7.842
		c0,1.434-0.018,2.887-0.037,4.358c-0.018,1.491-0.018,1.491-0.018,1.491c-0.038,1.918-3.67,3.837-8.083,4.266
		c0,0-10.581,1.024-16.187,4.004c-5.588,2.961-8.382,7.301-8.382,13c0,2.049,0.355,3.912,1.042,5.625
		c0.709,1.695,1.733,3.147,3.074,4.377c1.361,1.229,3.018,2.197,4.973,2.869c1.976,0.67,4.209,1.005,6.705,1.005
		c1.528,0,3.018-0.13,4.527-0.428c1.49-0.279,2.961-0.745,4.395-1.415c1.435-0.652,2.794-1.527,4.116-2.645
		c1.304-1.1,1.304-1.1,1.304-1.1c1.304-1.62,2.459-2.942,2.534-2.942c0.093,0,0.298,0.987,0.466,2.179c0,0,0,0,0.373,0.95
		c0.353,0.95,0.949,1.732,1.77,2.403c0.819,0.652,1.936,1.155,3.353,1.509c1.415,0.335,3.203,0.522,5.382,0.522
		c0.856,0,2.03-0.056,3.501-0.131s1.472-0.075,1.472-0.075c1.826-0.297,3.315-1.564,3.315-2.812
		C306.333,139.319,304.973,138.462,303.315,138.667z M286.143,128.832c0,0,0,0-0.913,1.956c-0.931,1.975-2.086,3.557-3.483,4.769
		c-1.379,1.21-2.869,2.085-4.451,2.607c-1.584,0.541-3,0.8-4.266,0.8c-2.347,0-4.173-0.782-5.513-2.365
		c-1.322-1.583-1.994-3.968-1.994-7.153c0-1.843,0.26-3.483,0.8-4.917c0.541-1.433,1.566-2.663,3.074-3.669s3.65-1.788,6.388-2.328
		c2.757-0.558,2.794-0.558,2.794-0.558c4.415-0.261,8.028,0.875,8.028,2.514C286.608,122.127,286.403,125.89,286.143,128.832z"/>
</g>
<g>
	<path fill="#434847" d="M347.629,89.053c-1.516,0-3.011,0.267-4.488,0.799c-1.475,0.532-2.868,1.291-4.18,2.274
		c-1.31,0.984-2.51,2.142-3.594,3.473c-1.088,1.332-1.088,1.332-1.088,1.332c-0.906,1.684-1.704,3.063-1.771,3.063
		s-0.124-2.144-0.124-4.764c0-2.621-3.62-4.764-8.045-4.764h-4.192c-4.426,0-8.047,1.107-8.047,2.459
		c0,1.352,2.076,2.459,4.611,2.459s4.611,3.621,4.611,8.046v26.443c0,4.426-2.075,8.046-4.611,8.046s-4.611,1.107-4.611,2.458
		c0,1.353,3.622,2.459,8.047,2.459h14.027c4.426,0,8.047-1.107,8.047-2.459c0-1.351-2.213-2.458-4.918-2.458
		c-2.705,0-4.918-3.621-4.918-8.046v-4.623c0-4.426,0.131-10.651,0.287-13.835c0,0,0,0,0.575-2.479
		c0.573-2.479,1.372-4.661,2.397-6.546c1.022-1.885,2.223-3.453,3.594-4.702c1.374-1.25,1.374-1.25,1.374-1.25
		c1.697-0.818,2.835-0.527,2.53,0.645c0,0,0,0,0,0.943c0,1.803,0.542,3.299,1.63,4.487c1.086,1.188,2.652,1.783,4.702,1.783
		c1.967,0,3.565-0.626,4.795-1.875c1.228-1.25,1.843-3.001,1.843-5.255c0-2.541-0.797-4.528-2.397-5.962
		C352.116,89.771,350.088,89.053,347.629,89.053z"/>
</g>
<g>
	<path fill="#434847" d="M390.821,244.053c0,1.36-3.614,2.459-8.047,2.459H369.68c-4.433,0-8.047-1.099-8.047-2.459
		c0-1.343,2.068-2.46,4.602-2.46c2.532,0,4.618-3.612,4.618-8.047V130.694c0.019-0.26,0.019-0.541,0.019-0.82v-26.448
		c0-4.415-2.066-8.047-4.6-8.047c-2.532,0-4.619-1.099-4.619-2.458c0-1.341,3.631-2.458,8.046-2.458h4.19
		c4.433,0,8.047,3.631,8.047,8.046v84.06h-0.018v50.978c0,4.435,1.991,8.047,4.45,8.047
		C388.828,241.593,390.821,242.71,390.821,244.053z"/>
</g>
<g>
	<path fill="#434847" d="M427.011,117.201c-1.662-1.229-3.536-2.253-5.624-3.073c-2.092-0.82-4.201-1.599-6.333-2.336
		c-2.663-0.901-4.908-1.68-6.73-2.336c-1.822-0.655-3.317-1.342-4.489-2.059c-1.168-0.718-2.004-1.537-2.518-2.459
		c-0.513-0.922-0.768-2.1-0.768-3.534s0.277-2.664,0.83-3.688c0.553-1.025,1.32-1.854,2.303-2.49
		c0.985-0.635,2.153-1.105,3.503-1.413c1.354-0.308,2.83-0.461,4.428-0.461c2.088,0,3.943,0.256,5.562,0.769
		c1.619,0.512,3.002,1.342,4.151,2.489c1.146,1.148,2.059,2.643,2.735,4.488c0.673,1.844,0.673,1.844,0.673,1.844
		c0.356,2.705,1.587,4.917,2.736,4.917s1.997-3.62,1.881-8.043l-0.011-0.448c-0.113-4.424-1.256-8.306-2.536-8.627
		c0,0,0,0-1.331-0.307c-1.332-0.308-2.725-0.584-4.181-0.831c-1.455-0.246-2.917-0.44-4.395-0.584
		c-1.473-0.144-2.888-0.214-4.241-0.214c-2.663,0-5.235,0.307-7.713,0.922c-2.48,0.614-4.674,1.577-6.577,2.889
		c-1.906,1.312-3.434,2.981-4.58,5.009c-1.149,2.029-1.721,4.437-1.721,7.223c0,2.541,0.491,4.692,1.474,6.454
		c0.985,1.763,2.295,3.269,3.937,4.518c1.637,1.25,3.532,2.316,5.686,3.197c2.15,0.88,4.395,1.731,6.73,2.551
		c2.335,0.819,4.343,1.536,6.024,2.151c1.681,0.615,3.052,1.271,4.117,1.967c1.066,0.697,1.845,1.485,2.336,2.366
		s0.738,1.998,0.738,3.35c0,1.558-0.32,2.89-0.953,3.996c-0.637,1.106-1.506,1.998-2.611,2.674c-1.11,0.676-2.408,1.168-3.904,1.476
		c-1.495,0.307-3.125,0.461-4.889,0.461c-2.336,0-4.373-0.267-6.115-0.799c-1.743-0.533-3.216-1.435-4.424-2.705
		c-1.212-1.271-2.153-2.96-2.83-5.071c-0.677-2.11-0.677-2.11-0.677-2.11c-0.353-3.149-1.597-5.727-2.765-5.727
		s-2.034,3.62-1.929,8.044l0.044,1.737c0.105,4.424,1.27,8.409,2.583,8.854c0,0,0,0,1.455,0.389c1.451,0.389,2.99,0.728,4.609,1.014
		c1.618,0.288,3.256,0.512,4.918,0.677c1.659,0.164,3.228,0.246,4.7,0.246c2.787,0,5.512-0.328,8.175-0.983
		c2.666-0.656,5.042-1.66,7.13-3.012c2.092-1.352,3.772-3.073,5.042-5.163c1.27-2.09,1.906-4.549,1.906-7.376
		c0-2.499-0.513-4.62-1.539-6.362C430.013,119.916,428.67,118.431,427.011,117.201z"/>
</g>
<g>
	<path fill="#434847" d="M475.907,117.207c-1.661-1.229-3.534-2.253-5.626-3.073c-2.088-0.82-4.198-1.599-6.33-2.336
		c-2.663-0.901-4.907-1.68-6.73-2.336c-1.824-0.655-3.319-1.342-4.488-2.059c-1.168-0.718-2.007-1.537-2.52-2.459
		c-0.512-0.922-0.77-2.1-0.77-3.534s0.278-2.664,0.831-3.688c0.553-1.025,1.322-1.854,2.305-2.49
		c0.984-0.635,2.151-1.105,3.503-1.413c1.354-0.308,2.829-0.461,4.428-0.461c2.088,0,3.943,0.256,5.563,0.769
		c1.619,0.512,3.001,1.342,4.148,2.489c1.148,1.148,2.06,2.643,2.736,4.488c0.675,1.844,0.675,1.844,0.675,1.844
		c0.356,2.705,1.586,4.917,2.735,4.917s1.997-3.62,1.881-8.043l-0.011-0.448c-0.116-4.424-1.257-8.306-2.536-8.627
		c0,0,0,0-1.331-0.307c-1.331-0.308-2.725-0.584-4.18-0.831c-1.455-0.246-2.92-0.44-4.395-0.584
		c-1.476-0.144-2.889-0.214-4.242-0.214c-2.663,0-5.234,0.307-7.714,0.922c-2.479,0.614-4.673,1.577-6.577,2.889
		s-3.433,2.981-4.579,5.009c-1.149,2.029-1.721,4.437-1.721,7.223c0,2.541,0.491,4.692,1.474,6.454
		c0.984,1.763,2.296,3.269,3.935,4.518c1.639,1.25,3.534,2.316,5.686,3.197c2.152,0.88,4.395,1.731,6.732,2.551
		c2.336,0.819,4.344,1.536,6.022,2.151c1.681,0.615,3.054,1.271,4.12,1.967c1.063,0.697,1.843,1.485,2.335,2.366
		c0.491,0.881,0.737,1.998,0.737,3.35c0,1.558-0.318,2.89-0.953,3.996c-0.635,1.106-1.507,1.998-2.612,2.674
		c-1.107,0.676-2.406,1.168-3.903,1.476c-1.497,0.307-3.125,0.461-4.888,0.461c-2.335,0-4.373-0.267-6.115-0.799
		c-1.742-0.533-3.216-1.435-4.426-2.705c-1.209-1.271-2.151-2.96-2.828-5.071c-0.677-2.11-0.677-2.11-0.677-2.11
		c-0.353-3.149-1.597-5.727-2.765-5.727s-2.033,3.62-1.928,8.044l0.043,1.737c0.105,4.424,1.269,8.409,2.581,8.854
		c0,0,0,0,1.454,0.389c1.455,0.389,2.993,0.728,4.612,1.014c1.617,0.288,3.256,0.512,4.915,0.677
		c1.66,0.164,3.229,0.246,4.704,0.246c2.786,0,5.511-0.328,8.174-0.983c2.665-0.656,5.042-1.66,7.13-3.012
		c2.092-1.352,3.771-3.073,5.042-5.163c1.271-2.09,1.905-4.549,1.905-7.376c0-2.499-0.512-4.62-1.537-6.362
		C478.908,119.921,477.567,118.437,475.907,117.207z"/>
</g>
<g>
	<path fill="#434847" d="M538.365,138.667c0,0,0,0-1.023,0c-1.191,0-2.104-0.168-2.776-0.466c-0.65-0.316-1.135-0.819-1.47-1.546
		c-0.317-0.708-0.521-1.676-0.614-2.887c-0.074-1.211-0.131-2.72-0.131-4.508c0-1.769,0.018-3.8,0.036-6.128
		c0.021-2.309,0.057-4.6,0.095-6.854c0.036-2.254,0.074-4.303,0.093-6.166c0.019-1.862,0.036-3.222,0.036-4.042
		c0-3.279-0.409-6.016-1.209-8.232c-0.803-2.217-1.976-3.986-3.559-5.309c-1.584-1.342-3.501-2.291-5.775-2.869
		c-2.271-0.559-4.897-0.857-7.841-0.857c-3.65,0-6.836,0.372-9.555,1.118c-2.738,0.726-5.01,1.714-6.836,2.942
		c-1.807,1.229-3.185,2.626-4.116,4.21c-0.913,1.583-1.379,3.204-1.379,4.88c0,1.08,0.169,2.012,0.522,2.812
		c0.354,0.782,0.82,1.453,1.379,1.994c0.576,0.521,1.266,0.912,2.029,1.154c0.782,0.261,1.583,0.373,2.403,0.373
		c1.919,0,3.444-0.578,4.545-1.713c1.117-1.155,1.657-2.589,1.657-4.303c0-1.025-0.224-2.067-0.707-3.11
		c-0.466-1.043-0.466-1.043-0.466-1.043c-0.932-1.062-0.579-2.589,0.818-3.409c0,0,0,0,1.752-0.484
		c1.731-0.503,3.707-0.746,5.922-0.746c3.316,0,5.755,0.746,7.283,2.235c1.546,1.509,2.311,4.116,2.311,7.842
		c0,1.434-0.019,2.887-0.039,4.358c-0.018,1.491-0.018,1.491-0.018,1.491c-0.036,1.918-3.669,3.837-8.084,4.266
		c0,0-10.578,1.024-16.166,4.004c-5.608,2.961-8.402,7.301-8.402,13c0,2.049,0.355,3.912,1.045,5.625
		c0.707,1.695,1.731,3.147,3.071,4.377c1.361,1.229,3.018,2.197,4.993,2.869c1.955,0.67,4.191,1.005,6.687,1.005
		c1.528,0,3.036-0.13,4.525-0.428c1.49-0.279,2.962-0.745,4.396-1.415c1.434-0.652,2.813-1.527,4.116-2.645
		c1.305-1.1,1.305-1.1,1.305-1.1c1.322-1.62,2.457-2.942,2.531-2.942c0.095,0,0.299,0.987,0.466,2.179c0,0,0,0,0.373,0.95
		c0.373,0.95,0.949,1.732,1.77,2.403c0.839,0.652,1.938,1.155,3.353,1.509c1.415,0.335,3.224,0.522,5.384,0.522
		c0.857,0,2.03-0.056,3.502-0.131s1.472-0.075,1.472-0.075c1.824-0.297,3.334-1.564,3.334-2.812
		C541.403,139.319,540.024,138.462,538.365,138.667z M521.211,128.832c0,0,0,0-0.931,1.956c-0.912,1.975-2.085,3.557-3.464,4.769
		c-1.396,1.21-2.887,2.085-4.471,2.607c-1.564,0.541-2.998,0.8-4.266,0.8c-2.328,0-4.173-0.782-5.495-2.365
		c-1.34-1.583-2.012-3.968-2.012-7.153c0-1.843,0.28-3.483,0.803-4.917c0.54-1.433,1.563-2.663,3.072-3.669
		c1.527-1.006,3.65-1.788,6.39-2.328c2.756-0.558,2.794-0.558,2.794-0.558c4.414-0.261,8.026,0.875,8.026,2.514
		C521.658,122.127,521.455,125.89,521.211,128.832z"/>
</g>
<g>
	<path fill="#434847" d="M194.019,213.767c-0.82-2.384-2.143-4.525-3.967-6.408c-1.826-1.88-4.19-3.465-7.079-4.767
		c-2.887-1.286-2.887-1.286-2.887-1.286c-4.172-0.857-7.581-1.621-7.581-1.695c0-0.057,2.906-1.024,6.464-2.123c0,0,0,0,2.478-1.434
		c2.477-1.435,4.507-3.092,6.071-4.973c1.583-1.9,2.738-3.933,3.483-6.13c0.726-2.179,1.099-4.471,1.099-6.854
		c0-2.943-0.577-5.681-1.751-8.232c-1.173-2.533-3.072-4.75-5.737-6.631c-2.663-1.881-6.146-3.371-10.448-4.433
		c-4.304-1.062-7.767-1.229-7.767-1.229c-4.415-0.205-11.659-0.373-16.094-0.373h-20.786c-4.415,0-8.046,1.118-8.046,2.459
		c0,1.359,2.775,2.458,6.146,2.458c3.391,0,6.147,3.633,6.147,8.047v63.383c0,4.435-2.757,8.047-6.147,8.047
		c-3.371,0-6.146,1.117-6.146,2.46c0,1.36,3.631,2.459,8.046,2.459h22.332c4.415,0,11.662-0.206,16.074-0.447
		c0,0,4.36-0.263,8.867-1.659c4.525-1.415,8.14-3.296,10.896-5.624c2.737-2.347,4.695-5.01,5.83-8.029
		c1.155-3.016,1.713-6.107,1.713-9.313C195.229,218.702,194.838,216.132,194.019,213.767z M145.759,170.163
		c0-4.414,2.663-8.047,5.904-8.047c3.242,0,9.499,0.149,13.913,0.336c0,0,0,0,2.776,0.689c2.756,0.67,4.917,1.694,6.481,3.073
		c1.566,1.36,2.626,3.09,3.187,5.161c0.577,2.066,0.875,4.487,0.875,7.281c0,3.65-0.429,6.688-1.304,9.127
		c-0.856,2.439-2.292,4.396-4.302,5.866c-1.994,1.491-4.656,2.534-7.991,3.148c-3.316,0.615-4.247,0.633-4.247,0.633
		c-4.415,0.17-9.667,0.278-11.659,0.278c-1.994,0-3.633-3.612-3.633-8.045V170.163z M180.665,231.127
		c-0.764,2.514-2.05,4.544-3.838,6.108c-1.788,1.563-4.135,2.681-7.06,3.352c-2.943,0.672-2.943,0.672-2.943,0.672
		c-4.358,0.186-10.877,0.334-14.49,0.334c-3.614,0-6.576-3.612-6.576-8.047v-22.871c0-4.415,2.179-8.047,4.824-8.047
		c2.645,0,8.438,0.131,12.871,0.298c0,0,1.844,0.075,5.271,0.819c3.409,0.728,6.09,1.88,8.045,3.427
		c1.937,1.565,3.28,3.539,3.987,5.942c0.726,2.385,1.081,5.271,1.081,8.623C181.838,225.481,181.447,228.592,180.665,231.127z"/>
</g>
<g>
	<path fill="#434847" d="M237.335,192.732c-1.517,0-3.012,0.266-4.489,0.801c-1.473,0.531-2.867,1.291-4.18,2.273
		c-1.31,0.982-2.51,2.143-3.594,3.475c-1.088,1.331-1.088,1.331-1.088,1.331c-0.906,1.685-1.703,3.063-1.771,3.063
		c-0.069,0-0.124-2.146-0.124-4.766s-3.62-4.763-8.047-4.763h-4.191c-4.423,0-8.047,1.106-8.047,2.46
		c0,1.35,2.077,2.459,4.613,2.459c2.532,0,4.609,3.619,4.609,8.043v26.444c0,4.427-2.077,8.047-4.609,8.047
		c-2.536,0-4.613,1.105-4.613,2.459s3.624,2.459,8.047,2.459h14.028c4.424,0,8.047-1.105,8.047-2.459s-2.215-2.459-4.918-2.459
		c-2.703,0-4.918-3.62-4.918-8.047v-4.62c0-4.428,0.131-10.652,0.288-13.835c0,0,0,0,0.575-2.481
		c0.575-2.478,1.372-4.66,2.397-6.544c1.022-1.885,2.223-3.453,3.594-4.704c1.375-1.248,1.375-1.248,1.375-1.248
		c1.695-0.818,2.834-0.527,2.528,0.645c0,0,0,0,0,0.941c0,1.805,0.546,3.3,1.63,4.489c1.087,1.187,2.652,1.783,4.704,1.783
		c1.964,0,3.565-0.626,4.795-1.878c1.226-1.247,1.841-3.001,1.841-5.253c0-2.543-0.797-4.529-2.397-5.962
		C241.821,193.449,239.794,192.732,237.335,192.732z"/>
</g>
<g>
	<path fill="#434847" d="M300.802,208.589c-1.119-3.316-2.794-6.223-5.011-8.719c-2.197-2.514-4.955-4.489-8.232-5.94
		s-7.041-2.179-11.307-2.179c-4.302,0-8.14,0.745-11.528,2.233c-3.373,1.51-6.241,3.539-8.569,6.13
		c-2.347,2.57-4.116,5.588-5.326,9.032c-1.211,3.445-1.808,7.098-1.808,10.934c0,3.744,0.56,7.264,1.695,10.581
		c1.119,3.314,2.794,6.221,5.011,8.734c2.197,2.496,4.955,4.472,8.232,5.923c3.278,1.453,7.042,2.179,11.307,2.179
		c4.302,0,8.138-0.745,11.528-2.233c3.391-1.51,6.241-3.54,8.569-6.13c2.346-2.568,4.116-5.588,5.326-9.032
		c1.211-3.445,1.806-7.078,1.806-10.935C302.495,215.442,301.937,211.904,300.802,208.589z M289.382,230.752
		c-0.651,3.02-1.583,5.402-2.812,7.19s-2.755,3.036-4.6,3.781c-1.844,0.746-3.949,1.099-6.333,1.099
		c-2.421,0-4.525-0.353-6.332-1.062c-1.808-0.726-3.298-1.956-4.489-3.726c-1.191-1.768-2.086-4.114-2.701-7.058
		c-0.615-2.963-0.931-6.668-0.931-11.139c0-4.544,0.316-8.327,0.969-11.343c0.633-3,1.564-5.402,2.794-7.19
		c1.228-1.788,2.756-3.036,4.582-3.782c1.824-0.726,3.929-1.099,6.35-1.099c2.384,0,4.489,0.354,6.297,1.081
		c1.825,0.707,3.334,1.957,4.525,3.707c1.191,1.768,2.086,4.116,2.701,7.077c0.615,2.943,0.932,6.648,0.932,11.119
		C290.334,223.955,290.018,227.736,289.382,230.752z"/>
</g>
<g>
	<path fill="#434847" d="M355.436,228.795c-0.902-0.123-2.328,2.085-3.165,4.907c0,0,0,0-1.088,1.906
		c-1.084,1.903-2.335,3.441-3.747,4.609c-1.415,1.168-2.983,2.02-4.704,2.551c-1.721,0.53-3.543,0.8-5.471,0.8
		c-2.128,0-4.096-0.298-5.901-0.892c-1.8-0.596-3.369-1.721-4.7-3.383c-1.335-1.659-2.379-3.965-3.136-6.916
		c-0.76-2.95-1.139-6.799-1.139-11.554c0-5.122,0.411-9.222,1.23-12.292c0.818-3.074,1.917-5.442,3.289-7.102
		c1.375-1.658,2.95-2.746,4.733-3.259c1.782-0.51,3.638-0.769,5.562-0.769c1.517,0,3.187,0.197,5.009,0.586
		c1.826,0.39,1.826,0.39,1.826,0.39c1.652,1.019,2.132,2.849,1.073,4.067c0,0,0,0-0.531,1.229c-0.531,1.229-0.8,2.375-0.8,3.441
		c0,1.761,0.585,3.277,1.753,4.547c1.167,1.27,2.753,1.906,4.762,1.906c0.738,0,1.517-0.123,2.335-0.367
		c0.822-0.247,1.568-0.637,2.245-1.168c0.677-0.534,1.24-1.24,1.691-2.121c0.451-0.88,0.677-1.979,0.677-3.288
		c0-1.845-0.491-3.609-1.478-5.286c-0.982-1.681-2.357-3.157-4.118-4.427s-3.863-2.285-6.3-3.042
		c-2.438-0.76-5.111-1.139-8.022-1.139c-4.096,0-7.817,0.75-11.157,2.245c-3.339,1.495-6.195,3.525-8.574,6.086
		c-2.375,2.562-4.209,5.563-5.5,9.004s-1.936,7.108-1.936,11.001c0,3.732,0.615,7.254,1.844,10.575
		c1.23,3.317,2.979,6.229,5.253,8.728c2.277,2.499,5.042,4.478,8.298,5.934c3.26,1.451,6.938,2.179,11.034,2.179
		c5.901,0,10.706-1.575,14.417-4.733c3.707-3.153,4.882-6.435,4.882-6.435c1.488-4.17,2.026-7.818,1.193-8.113c0,0,0,0-0.822-0.203
		C355.436,228.795,355.436,228.795,355.436,228.795z"/>
</g>
<g>
	<path fill="#434847" d="M491.074,196.607c0,1.35,1.938,2.459,4.304,2.459c2.368,0,2.968,3.365,1.339,7.479l-7.597,19.153
		c-1.63,4.114-3.02,7.479-3.085,7.479c-0.068,0-1.473-3.361-3.121-7.465l-9.801-24.406c-1.651-4.107-3.845-7.469-4.874-7.469
		c-1.03,0-3.22,3.365-4.864,7.472l-9.757,24.396c-1.645,4.111-3.045,7.473-3.11,7.473c-0.069,0-1.48-3.357-3.136-7.461l-7.745-19.19
		c-1.659-4.104-1.037-7.461,1.383-7.461c2.415,0,4.395-1.109,4.395-2.459c0-1.354-3.624-2.46-8.047-2.46h-7.2
		c-4.423,0-9.553,0-11.397,0c-1.844,0-6.974,0-11.4,0h-5.17c-4.424,0-8.047,1.106-8.047,2.46c0,1.35,2.033,2.459,4.519,2.459
		c2.484,0,1.982,2.583-1.113,5.744l-7.298,7.439c-3.1,3.161-3.252,8.477-0.346,11.809l10.016,11.478
		c2.906,3.336,3.423,6.064,1.139,6.064c-2.281,0-4.147,1.105-4.147,2.459s3.619,2.459,8.047,2.459h13.719
		c4.424,0,8.047-1.105,8.047-2.459s-1.688-2.459-3.751-2.459s-6.126-2.732-9.029-6.072l-13.289-15.271
		c-2.903-3.34-2.779-8.69,0.276-11.889l3.329-3.485c3.06-3.201,6.817-5.816,8.353-5.816c1.539,0,4.304,0,6.147,0
		c1.845,0,3.904,0,4.58,0c0.674,0,2.612,3.343,4.308,7.432l13.875,33.447c1.695,4.089,4.245,7.432,5.664,7.432
		s3.954-3.35,5.628-7.446l9.149-22.354c1.677-4.097,4.409-4.093,6.075,0.007l9.069,22.341c1.662,4.1,4.201,7.453,5.639,7.453
		c1.437,0,3.976-3.35,5.646-7.45l13.603-33.41c1.666-4.1,5.053-7.45,7.522-7.45c2.467,0,4.486-1.109,4.486-2.459
		c0-1.354-3.62-2.46-8.047-2.46h-6.836C494.697,194.147,491.074,195.254,491.074,196.607z"/>
</g>
<g>
	<path fill="#434847" d="M564.526,243.699c0,0,0,0-1.024,0c-1.192,0-2.105-0.169-2.775-0.466c-0.653-0.318-1.137-0.821-1.472-1.546
		c-0.316-0.709-0.54-1.677-0.614-2.889c-0.075-1.211-0.113-2.699-0.113-4.507c0-1.769,0-3.8,0.021-6.128
		c0.018-2.309,0.055-4.601,0.093-6.854c0.036-2.254,0.074-4.302,0.093-6.165c0.018-1.862,0.038-3.205,0.038-4.023
		c0-3.277-0.411-6.035-1.212-8.252c-0.8-2.197-1.974-3.985-3.558-5.308c-1.582-1.341-3.501-2.29-5.773-2.869
		c-2.273-0.56-4.88-0.856-7.841-0.856c-3.651,0-6.836,0.373-9.556,1.117c-2.719,0.726-5.011,1.715-6.835,2.942
		c-1.809,1.229-3.188,2.627-4.118,4.211c-0.911,1.583-1.377,3.201-1.377,4.879c0,1.08,0.167,2.012,0.52,2.812
		c0.355,0.782,0.82,1.453,1.379,1.994c0.579,0.521,1.269,0.913,2.03,1.175c0.782,0.24,1.584,0.353,2.403,0.353
		c1.918,0,3.446-0.56,4.545-1.713c1.117-1.155,1.657-2.591,1.657-4.304c0-1.024-0.224-2.066-0.708-3.11
		c-0.465-1.043-0.465-1.043-0.465-1.043c-0.932-1.062-0.577-2.588,0.82-3.408c0,0,0,0,1.749-0.485
		c1.733-0.502,3.707-0.744,5.925-0.744c3.314,0,5.755,0.744,7.281,2.235c1.546,1.51,2.31,4.116,2.31,7.842
		c0,1.435-0.018,2.887-0.036,4.378c-0.02,1.47-0.02,1.47-0.02,1.47c-0.037,1.919-3.669,3.838-8.084,4.266
		c0,0-10.579,1.023-16.166,4.005c-5.606,2.961-8.4,7.302-8.4,13c0,2.048,0.353,3.911,1.042,5.626
		c0.708,1.693,1.731,3.167,3.074,4.396c1.358,1.229,3.018,2.179,4.991,2.849c1.955,0.671,4.19,1.006,6.687,1.006
		c1.528,0,3.036-0.129,4.527-0.428c1.489-0.28,2.961-0.746,4.395-1.415c1.436-0.653,2.813-1.528,4.116-2.627
		c1.305-1.118,1.305-1.118,1.305-1.118c1.322-1.621,2.459-2.943,2.533-2.943c0.093,0,0.299,0.988,0.466,2.181c0,0,0,0,0.371,0.95
		c0.373,0.949,0.97,1.731,1.77,2.4c0.839,0.653,1.956,1.157,3.353,1.51c1.417,0.335,3.223,0.521,5.384,0.521
		c0.856,0,2.03-0.055,3.502-0.129c1.472-0.075,1.472-0.075,1.472-0.075c1.824-0.298,3.334-1.563,3.334-2.812
		S566.184,243.492,564.526,243.699z M547.372,233.862c0,0,0,0-0.932,1.958c-0.913,1.973-2.086,3.558-3.465,4.767
		c-1.396,1.212-2.887,2.087-4.471,2.608c-1.564,0.541-2.998,0.801-4.264,0.801c-2.328,0-4.173-0.782-5.495-2.366
		c-1.343-1.583-2.012-3.966-2.012-7.152c0-1.845,0.278-3.481,0.8-4.917c0.541-1.435,1.564-2.663,3.074-3.669
		c1.526-1.006,3.65-1.77,6.389-2.328c2.757-0.56,2.794-0.56,2.794-0.56c4.414-0.24,8.026,0.876,8.026,2.516
		C547.817,227.158,547.614,230.92,547.372,233.862z"/>
</g>
<g>
	<path fill="#434847" d="M614.875,195.497c-4.424,0-8.047,1.11-8.047,2.46c0,1.353,1.938,2.459,4.303,2.459
		c2.369,0,2.831,3.311,1.03,7.353l-8.637,19.411c-1.801,4.046-3.328,7.353-3.394,7.353c-0.069,0-1.602-3.307-3.409-7.349
		l-8.677-19.419c-1.808-4.042-1.346-7.349,1.019-7.349c2.369,0,4.304-1.106,4.304-2.459c0-1.35-3.623-2.46-8.047-2.46h-13.903
		c-4.424,0-8.048,1.11-8.048,2.46c0,1.353,2.089,2.459,4.643,2.459s6.122,3.307,7.934,7.341l14.865,33.142
		c1.812,4.038,1.804,10.641-0.015,14.675c0,0-2.827,6.261-5.145,10.954c-2.313,4.689-2.313,4.689-2.313,4.689
		c-1.957,2.474-3.608,4.485-3.678,4.467c-0.069-0.015-0.069-0.371,0-0.789c0,0,0,0,0-0.531c0-0.818-0.135-1.608-0.4-2.368
		c-0.266-0.757-0.654-1.434-1.168-2.026c-0.513-0.593-1.156-1.066-1.936-1.415c-0.778-0.346-1.658-0.521-2.645-0.521
		c-1.065,0-1.997,0.193-2.794,0.582c-0.8,0.39-1.487,0.902-2.059,1.539c-0.575,0.633-1.004,1.36-1.292,2.179
		c-0.287,0.822-0.433,1.663-0.433,2.521c0,0.985,0.196,1.946,0.586,2.889c0.39,0.941,0.964,1.774,1.721,2.491
		s1.681,1.288,2.765,1.721c1.088,0.43,2.328,0.645,3.722,0.645c1.761,0,3.401-0.43,4.915-1.292c1.517-0.858,3.073-2.364,4.674-4.518
		c1.598-2.15,3.329-5.061,5.191-8.728c1.866-3.667,3.18-6.585,3.18-6.585c1.819-4.038,4.77-10.651,6.556-14.696l17.229-39.002
		c1.787-4.049,5.297-7.363,7.8-7.363c2.5,0,4.548-1.106,4.548-2.459c0-1.35-3.624-2.46-8.047-2.46H614.875z"/>
</g>
<path fill="#434847" d="M371.156,78.48c0.677,0.656,1.455,1.158,2.336,1.505c0.881,0.349,1.855,0.523,2.919,0.523
	c1.024,0,1.988-0.185,2.891-0.553c0.9-0.369,1.679-0.871,2.336-1.506c0.654-0.636,1.179-1.403,1.567-2.306
	c0.39-0.901,0.582-1.905,0.582-3.011c0-1.107-0.184-2.101-0.553-2.981c-0.367-0.881-0.892-1.65-1.568-2.306
	c-0.675-0.656-1.464-1.158-2.364-1.506c-0.902-0.348-1.866-0.522-2.891-0.522c-1.023,0-1.987,0.184-2.888,0.553
	c-0.902,0.369-1.681,0.881-2.338,1.537c-0.654,0.655-1.177,1.434-1.566,2.335c-0.389,0.901-0.583,1.885-0.583,2.95
	c0,1.107,0.186,2.1,0.553,2.981C369.958,77.056,370.48,77.825,371.156,78.48z"/>
<path fill="#434847" d="M370.871,120.171v9.704c0,0.279,0,0.56-0.019,0.82v-10.523H370.871z"/>
</svg>
